<mxfile host="app.diagrams.net" modified="2022-05-10T14:52:03.481Z" agent="5.0 (Macintosh; Intel Mac OS X 10_15_7) AppleWebKit/537.36 (KHTML, like Gecko) Chrome/100.0.4896.127 Safari/537.36" etag="UbWZt8ZsbIUr8sx4JoBo" version="18.0.2" type="github" pages="4">
  <diagram id="Ar0kWiEjL53RKp8qV1HC" name="黄帝">
    <mxGraphModel dx="946" dy="1783" grid="1" gridSize="10" guides="1" tooltips="1" connect="1" arrows="1" fold="1" page="1" pageScale="1" pageWidth="827" pageHeight="1169" math="0" shadow="0">
      <root>
        <mxCell id="0" />
        <mxCell id="1" parent="0" />
        <mxCell id="65cZlFvj0mOp-KRwFTWv-3" style="edgeStyle=orthogonalEdgeStyle;rounded=0;orthogonalLoop=1;jettySize=auto;html=1;fontSize=12;" parent="1" source="65cZlFvj0mOp-KRwFTWv-1" target="65cZlFvj0mOp-KRwFTWv-2" edge="1">
          <mxGeometry relative="1" as="geometry" />
        </mxCell>
        <mxCell id="65cZlFvj0mOp-KRwFTWv-35" style="edgeStyle=orthogonalEdgeStyle;curved=1;rounded=0;orthogonalLoop=1;jettySize=auto;html=1;entryX=0.5;entryY=0.6;entryDx=0;entryDy=0;fontSize=12;entryPerimeter=0;" parent="1" source="65cZlFvj0mOp-KRwFTWv-1" target="65cZlFvj0mOp-KRwFTWv-34" edge="1">
          <mxGeometry relative="1" as="geometry" />
        </mxCell>
        <mxCell id="65cZlFvj0mOp-KRwFTWv-116" style="edgeStyle=orthogonalEdgeStyle;curved=1;rounded=0;orthogonalLoop=1;jettySize=auto;html=1;fontSize=12;strokeColor=#66CC00;strokeWidth=2;" parent="1" source="65cZlFvj0mOp-KRwFTWv-1" target="65cZlFvj0mOp-KRwFTWv-64" edge="1">
          <mxGeometry relative="1" as="geometry" />
        </mxCell>
        <mxCell id="65cZlFvj0mOp-KRwFTWv-117" value="传位给儿子" style="edgeLabel;html=1;align=center;verticalAlign=middle;resizable=0;points=[];fontSize=12;" parent="65cZlFvj0mOp-KRwFTWv-116" vertex="1" connectable="0">
          <mxGeometry x="-0.2401" y="42" relative="1" as="geometry">
            <mxPoint x="30" y="18" as="offset" />
          </mxGeometry>
        </mxCell>
        <mxCell id="65cZlFvj0mOp-KRwFTWv-118" style="edgeStyle=orthogonalEdgeStyle;curved=1;rounded=0;orthogonalLoop=1;jettySize=auto;html=1;exitX=1;exitY=1;exitDx=0;exitDy=0;entryX=1;entryY=0.5;entryDx=0;entryDy=0;fontSize=12;strokeWidth=2;strokeColor=#FF0000;" parent="1" source="65cZlFvj0mOp-KRwFTWv-1" target="65cZlFvj0mOp-KRwFTWv-71" edge="1">
          <mxGeometry relative="1" as="geometry">
            <Array as="points">
              <mxPoint x="1000" y="198" />
              <mxPoint x="1000" y="330" />
              <mxPoint x="1010" y="330" />
              <mxPoint x="1010" y="655" />
            </Array>
          </mxGeometry>
        </mxCell>
        <mxCell id="65cZlFvj0mOp-KRwFTWv-119" value="传位给儿子" style="edgeLabel;html=1;align=center;verticalAlign=middle;resizable=0;points=[];fontSize=12;" parent="65cZlFvj0mOp-KRwFTWv-118" vertex="1" connectable="0">
          <mxGeometry x="-0.4077" y="-2" relative="1" as="geometry">
            <mxPoint x="-28" y="9" as="offset" />
          </mxGeometry>
        </mxCell>
        <mxCell id="65cZlFvj0mOp-KRwFTWv-145" style="edgeStyle=orthogonalEdgeStyle;curved=1;rounded=0;orthogonalLoop=1;jettySize=auto;html=1;fontSize=11;strokeColor=#330000;strokeWidth=1;startArrow=none;" parent="1" source="65cZlFvj0mOp-KRwFTWv-147" target="65cZlFvj0mOp-KRwFTWv-142" edge="1">
          <mxGeometry relative="1" as="geometry" />
        </mxCell>
        <mxCell id="65cZlFvj0mOp-KRwFTWv-146" value="次妃" style="edgeLabel;html=1;align=center;verticalAlign=middle;resizable=0;points=[];fontSize=11;" parent="65cZlFvj0mOp-KRwFTWv-145" vertex="1" connectable="0">
          <mxGeometry x="0.3161" y="-1" relative="1" as="geometry">
            <mxPoint x="31" y="23" as="offset" />
          </mxGeometry>
        </mxCell>
        <mxCell id="hZrphyVDv4pvbZArS3AW-44" style="edgeStyle=orthogonalEdgeStyle;curved=1;rounded=0;orthogonalLoop=1;jettySize=auto;html=1;fontSize=12;" parent="1" source="65cZlFvj0mOp-KRwFTWv-1" target="65cZlFvj0mOp-KRwFTWv-147" edge="1">
          <mxGeometry relative="1" as="geometry" />
        </mxCell>
        <mxCell id="65cZlFvj0mOp-KRwFTWv-1" value="&lt;font style=&quot;font-size: 22px&quot;&gt;黄帝&lt;/font&gt;&lt;br&gt;公孙轩辕/姬轩辕&lt;br&gt;有熊氏" style="ellipse;whiteSpace=wrap;html=1;fillColor=#fff2cc;strokeColor=#d6b656;" parent="1" vertex="1">
          <mxGeometry x="815" y="130" width="120" height="80" as="geometry" />
        </mxCell>
        <mxCell id="65cZlFvj0mOp-KRwFTWv-7" style="edgeStyle=orthogonalEdgeStyle;rounded=0;orthogonalLoop=1;jettySize=auto;html=1;fontSize=12;entryX=0;entryY=0.5;entryDx=0;entryDy=0;" parent="1" source="65cZlFvj0mOp-KRwFTWv-2" target="65cZlFvj0mOp-KRwFTWv-4" edge="1">
          <mxGeometry relative="1" as="geometry" />
        </mxCell>
        <mxCell id="65cZlFvj0mOp-KRwFTWv-12" value="打败" style="edgeLabel;html=1;align=center;verticalAlign=middle;resizable=0;points=[];fontSize=12;" parent="65cZlFvj0mOp-KRwFTWv-7" vertex="1" connectable="0">
          <mxGeometry x="0.6914" y="1" relative="1" as="geometry">
            <mxPoint y="-14" as="offset" />
          </mxGeometry>
        </mxCell>
        <mxCell id="65cZlFvj0mOp-KRwFTWv-8" style="edgeStyle=orthogonalEdgeStyle;rounded=0;orthogonalLoop=1;jettySize=auto;html=1;fontSize=12;" parent="1" source="65cZlFvj0mOp-KRwFTWv-2" target="65cZlFvj0mOp-KRwFTWv-5" edge="1">
          <mxGeometry relative="1" as="geometry">
            <Array as="points">
              <mxPoint x="1130" y="170" />
              <mxPoint x="1130" y="315" />
            </Array>
          </mxGeometry>
        </mxCell>
        <mxCell id="65cZlFvj0mOp-KRwFTWv-11" value="打败" style="edgeLabel;html=1;align=center;verticalAlign=middle;resizable=0;points=[];fontSize=12;" parent="65cZlFvj0mOp-KRwFTWv-8" vertex="1" connectable="0">
          <mxGeometry x="0.536" y="2" relative="1" as="geometry">
            <mxPoint y="-13" as="offset" />
          </mxGeometry>
        </mxCell>
        <mxCell id="65cZlFvj0mOp-KRwFTWv-9" style="edgeStyle=orthogonalEdgeStyle;rounded=0;orthogonalLoop=1;jettySize=auto;html=1;fontSize=12;" parent="1" source="65cZlFvj0mOp-KRwFTWv-2" target="65cZlFvj0mOp-KRwFTWv-6" edge="1">
          <mxGeometry relative="1" as="geometry">
            <Array as="points">
              <mxPoint x="1120" y="170" />
              <mxPoint x="1120" y="377" />
            </Array>
          </mxGeometry>
        </mxCell>
        <mxCell id="65cZlFvj0mOp-KRwFTWv-10" value="平服" style="edgeLabel;html=1;align=center;verticalAlign=middle;resizable=0;points=[];fontSize=12;" parent="65cZlFvj0mOp-KRwFTWv-9" vertex="1" connectable="0">
          <mxGeometry x="0.6073" y="2" relative="1" as="geometry">
            <mxPoint y="-10" as="offset" />
          </mxGeometry>
        </mxCell>
        <mxCell id="65cZlFvj0mOp-KRwFTWv-2" value="对手" style="ellipse;whiteSpace=wrap;html=1;aspect=fixed;fontSize=12;" parent="1" vertex="1">
          <mxGeometry x="1030" y="145" width="50" height="50" as="geometry" />
        </mxCell>
        <mxCell id="65cZlFvj0mOp-KRwFTWv-4" value="神农氏" style="rounded=1;whiteSpace=wrap;html=1;fontSize=12;" parent="1" vertex="1">
          <mxGeometry x="1170" y="230" width="60" height="30" as="geometry" />
        </mxCell>
        <mxCell id="65cZlFvj0mOp-KRwFTWv-46" value="妖术" style="edgeStyle=orthogonalEdgeStyle;curved=1;rounded=0;orthogonalLoop=1;jettySize=auto;html=1;entryX=0;entryY=0.5;entryDx=0;entryDy=0;fontSize=12;" parent="1" source="65cZlFvj0mOp-KRwFTWv-5" target="65cZlFvj0mOp-KRwFTWv-45" edge="1">
          <mxGeometry relative="1" as="geometry" />
        </mxCell>
        <mxCell id="hZrphyVDv4pvbZArS3AW-82" style="edgeStyle=orthogonalEdgeStyle;curved=1;rounded=0;orthogonalLoop=1;jettySize=auto;html=1;entryX=0;entryY=0.5;entryDx=0;entryDy=0;fontSize=12;fontColor=#330000;strokeColor=#330000;strokeWidth=1;" parent="1" source="65cZlFvj0mOp-KRwFTWv-5" target="hZrphyVDv4pvbZArS3AW-80" edge="1">
          <mxGeometry relative="1" as="geometry">
            <Array as="points">
              <mxPoint x="1210" y="260" />
              <mxPoint x="1390" y="260" />
              <mxPoint x="1390" y="255" />
            </Array>
          </mxGeometry>
        </mxCell>
        <mxCell id="hZrphyVDv4pvbZArS3AW-93" style="edgeStyle=orthogonalEdgeStyle;curved=1;rounded=0;orthogonalLoop=1;jettySize=auto;html=1;entryX=0;entryY=0.5;entryDx=0;entryDy=0;fontSize=12;fontColor=#330000;strokeColor=#330000;strokeWidth=1;" parent="1" source="65cZlFvj0mOp-KRwFTWv-5" target="hZrphyVDv4pvbZArS3AW-92" edge="1">
          <mxGeometry relative="1" as="geometry" />
        </mxCell>
        <mxCell id="65cZlFvj0mOp-KRwFTWv-5" value="蚩尤&lt;br&gt;九黎族酋长" style="rounded=1;whiteSpace=wrap;html=1;fontSize=12;" parent="1" vertex="1">
          <mxGeometry x="1170" y="300" width="80" height="30" as="geometry" />
        </mxCell>
        <mxCell id="65cZlFvj0mOp-KRwFTWv-6" value="荤粥（匈奴）&lt;br&gt;xun yu" style="rounded=1;whiteSpace=wrap;html=1;fontSize=12;" parent="1" vertex="1">
          <mxGeometry x="1170" y="362.5" width="80" height="30" as="geometry" />
        </mxCell>
        <mxCell id="65cZlFvj0mOp-KRwFTWv-14" style="edgeStyle=orthogonalEdgeStyle;rounded=0;orthogonalLoop=1;jettySize=auto;html=1;fontSize=12;" parent="1" source="65cZlFvj0mOp-KRwFTWv-13" target="65cZlFvj0mOp-KRwFTWv-4" edge="1">
          <mxGeometry relative="1" as="geometry" />
        </mxCell>
        <mxCell id="65cZlFvj0mOp-KRwFTWv-15" value="繁衍后代" style="edgeLabel;html=1;align=center;verticalAlign=middle;resizable=0;points=[];fontSize=12;" parent="65cZlFvj0mOp-KRwFTWv-14" vertex="1" connectable="0">
          <mxGeometry x="-0.24" relative="1" as="geometry">
            <mxPoint as="offset" />
          </mxGeometry>
        </mxCell>
        <mxCell id="hZrphyVDv4pvbZArS3AW-60" style="edgeStyle=orthogonalEdgeStyle;rounded=0;orthogonalLoop=1;jettySize=auto;html=1;entryX=1;entryY=0.5;entryDx=0;entryDy=0;fontSize=12;fontColor=#FF0000;strokeColor=#330000;strokeWidth=1;" parent="1" source="65cZlFvj0mOp-KRwFTWv-13" target="65cZlFvj0mOp-KRwFTWv-172" edge="1">
          <mxGeometry relative="1" as="geometry">
            <Array as="points">
              <mxPoint x="1420" y="135" />
              <mxPoint x="1420" y="655" />
            </Array>
          </mxGeometry>
        </mxCell>
        <mxCell id="hZrphyVDv4pvbZArS3AW-61" value="繁衍后代" style="edgeLabel;html=1;align=center;verticalAlign=middle;resizable=0;points=[];fontSize=12;fontColor=#330000;" parent="hZrphyVDv4pvbZArS3AW-60" vertex="1" connectable="0">
          <mxGeometry x="-0.0012" y="1" relative="1" as="geometry">
            <mxPoint y="-1" as="offset" />
          </mxGeometry>
        </mxCell>
        <mxCell id="65cZlFvj0mOp-KRwFTWv-13" value="&lt;span style=&quot;color: rgb(51 , 51 , 51) ; font-family: &amp;#34;helvetica neue&amp;#34; , &amp;#34;helvetica&amp;#34; , &amp;#34;arial&amp;#34; , &amp;#34;pingfang sc&amp;#34; , &amp;#34;hiragino sans gb&amp;#34; , &amp;#34;microsoft yahei&amp;#34; , &amp;#34;wenquanyi micro hei&amp;#34; , sans-serif ; text-indent: 28px ; background-color: rgb(255 , 255 , 255)&quot;&gt;炎帝（神农）&lt;/span&gt;" style="rounded=1;whiteSpace=wrap;html=1;fontSize=12;" parent="1" vertex="1">
          <mxGeometry x="1160" y="120" width="80" height="30" as="geometry" />
        </mxCell>
        <mxCell id="65cZlFvj0mOp-KRwFTWv-17" style="edgeStyle=orthogonalEdgeStyle;rounded=0;orthogonalLoop=1;jettySize=auto;html=1;fontSize=12;curved=1;" parent="1" source="65cZlFvj0mOp-KRwFTWv-16" target="65cZlFvj0mOp-KRwFTWv-1" edge="1">
          <mxGeometry relative="1" as="geometry" />
        </mxCell>
        <mxCell id="65cZlFvj0mOp-KRwFTWv-18" value="父亲" style="edgeLabel;html=1;align=center;verticalAlign=middle;resizable=0;points=[];fontSize=12;" parent="65cZlFvj0mOp-KRwFTWv-17" vertex="1" connectable="0">
          <mxGeometry x="-0.232" y="-9" relative="1" as="geometry">
            <mxPoint y="1" as="offset" />
          </mxGeometry>
        </mxCell>
        <mxCell id="65cZlFvj0mOp-KRwFTWv-16" value="少典国君" style="rounded=1;whiteSpace=wrap;html=1;fontSize=12;" parent="1" vertex="1">
          <mxGeometry x="745" y="60" width="60" height="30" as="geometry" />
        </mxCell>
        <mxCell id="65cZlFvj0mOp-KRwFTWv-20" style="edgeStyle=orthogonalEdgeStyle;curved=1;rounded=0;orthogonalLoop=1;jettySize=auto;html=1;fontSize=12;" parent="1" source="65cZlFvj0mOp-KRwFTWv-19" target="65cZlFvj0mOp-KRwFTWv-1" edge="1">
          <mxGeometry relative="1" as="geometry" />
        </mxCell>
        <mxCell id="65cZlFvj0mOp-KRwFTWv-21" value="母亲" style="edgeLabel;html=1;align=center;verticalAlign=middle;resizable=0;points=[];fontSize=12;" parent="65cZlFvj0mOp-KRwFTWv-20" vertex="1" connectable="0">
          <mxGeometry x="-0.1231" y="-3" relative="1" as="geometry">
            <mxPoint as="offset" />
          </mxGeometry>
        </mxCell>
        <mxCell id="65cZlFvj0mOp-KRwFTWv-22" style="edgeStyle=orthogonalEdgeStyle;curved=1;rounded=0;orthogonalLoop=1;jettySize=auto;html=1;entryX=0.5;entryY=0;entryDx=0;entryDy=0;fontSize=12;" parent="1" source="65cZlFvj0mOp-KRwFTWv-19" target="65cZlFvj0mOp-KRwFTWv-16" edge="1">
          <mxGeometry relative="1" as="geometry" />
        </mxCell>
        <mxCell id="65cZlFvj0mOp-KRwFTWv-23" value="妻子" style="edgeLabel;html=1;align=center;verticalAlign=middle;resizable=0;points=[];fontSize=12;" parent="65cZlFvj0mOp-KRwFTWv-22" vertex="1" connectable="0">
          <mxGeometry x="-0.2121" y="8" relative="1" as="geometry">
            <mxPoint as="offset" />
          </mxGeometry>
        </mxCell>
        <mxCell id="65cZlFvj0mOp-KRwFTWv-19" value="&lt;span style=&quot;color: rgb(51 , 51 , 51) ; font-family: &amp;#34;helvetica neue&amp;#34; , &amp;#34;helvetica&amp;#34; , &amp;#34;arial&amp;#34; , &amp;#34;pingfang sc&amp;#34; , &amp;#34;hiragino sans gb&amp;#34; , &amp;#34;microsoft yahei&amp;#34; , &amp;#34;wenquanyi micro hei&amp;#34; , sans-serif ; font-size: 12px ; text-indent: 28px ; background-color: rgb(255 , 255 , 255)&quot;&gt;附宝&lt;br&gt;&lt;/span&gt;&lt;span style=&quot;color: rgb(51 , 51 , 51) ; font-family: &amp;#34;helvetica neue&amp;#34; , &amp;#34;helvetica&amp;#34; , &amp;#34;arial&amp;#34; , &amp;#34;pingfang sc&amp;#34; , &amp;#34;hiragino sans gb&amp;#34; , &amp;#34;microsoft yahei&amp;#34; , &amp;#34;wenquanyi micro hei&amp;#34; , sans-serif ; text-indent: 28px ; background-color: rgb(255 , 255 , 255)&quot;&gt;有蟜氏&lt;/span&gt;&lt;span style=&quot;color: rgb(51 , 51 , 51) ; font-family: &amp;#34;helvetica neue&amp;#34; , &amp;#34;helvetica&amp;#34; , &amp;#34;arial&amp;#34; , &amp;#34;pingfang sc&amp;#34; , &amp;#34;hiragino sans gb&amp;#34; , &amp;#34;microsoft yahei&amp;#34; , &amp;#34;wenquanyi micro hei&amp;#34; , sans-serif ; font-size: 12px ; text-indent: 28px ; background-color: rgb(255 , 255 , 255)&quot;&gt;&lt;br style=&quot;font-size: 12px&quot;&gt;&lt;/span&gt;" style="rounded=1;whiteSpace=wrap;html=1;fontSize=12;" parent="1" vertex="1">
          <mxGeometry x="885" y="-10" width="60" height="30" as="geometry" />
        </mxCell>
        <mxCell id="65cZlFvj0mOp-KRwFTWv-32" value="母亲" style="edgeStyle=orthogonalEdgeStyle;curved=1;rounded=0;orthogonalLoop=1;jettySize=auto;html=1;entryX=0.5;entryY=0;entryDx=0;entryDy=0;fontSize=12;" parent="1" source="65cZlFvj0mOp-KRwFTWv-28" target="65cZlFvj0mOp-KRwFTWv-13" edge="1">
          <mxGeometry relative="1" as="geometry" />
        </mxCell>
        <mxCell id="65cZlFvj0mOp-KRwFTWv-28" value="&lt;span style=&quot;color: rgb(51 , 51 , 51) ; font-family: &amp;#34;helvetica neue&amp;#34; , &amp;#34;helvetica&amp;#34; , &amp;#34;arial&amp;#34; , &amp;#34;pingfang sc&amp;#34; , &amp;#34;hiragino sans gb&amp;#34; , &amp;#34;microsoft yahei&amp;#34; , &amp;#34;wenquanyi micro hei&amp;#34; , sans-serif ; font-size: 12px ; text-indent: 28px ; background-color: rgb(255 , 255 , 255)&quot;&gt;女登（安登）&lt;br&gt;&lt;/span&gt;&lt;span style=&quot;color: rgb(51 , 51 , 51) ; font-family: &amp;#34;helvetica neue&amp;#34; , &amp;#34;helvetica&amp;#34; , &amp;#34;arial&amp;#34; , &amp;#34;pingfang sc&amp;#34; , &amp;#34;hiragino sans gb&amp;#34; , &amp;#34;microsoft yahei&amp;#34; , &amp;#34;wenquanyi micro hei&amp;#34; , sans-serif ; text-indent: 28px ; background-color: rgb(255 , 255 , 255)&quot;&gt;有蟜氏&lt;/span&gt;&lt;span style=&quot;color: rgb(51 , 51 , 51) ; font-family: &amp;#34;helvetica neue&amp;#34; , &amp;#34;helvetica&amp;#34; , &amp;#34;arial&amp;#34; , &amp;#34;pingfang sc&amp;#34; , &amp;#34;hiragino sans gb&amp;#34; , &amp;#34;microsoft yahei&amp;#34; , &amp;#34;wenquanyi micro hei&amp;#34; , sans-serif ; font-size: 12px ; text-indent: 28px ; background-color: rgb(255 , 255 , 255)&quot;&gt;&lt;br style=&quot;font-size: 12px&quot;&gt;&lt;/span&gt;" style="rounded=1;whiteSpace=wrap;html=1;fontSize=12;" parent="1" vertex="1">
          <mxGeometry x="1160" y="40" width="80" height="30" as="geometry" />
        </mxCell>
        <mxCell id="65cZlFvj0mOp-KRwFTWv-39" style="edgeStyle=orthogonalEdgeStyle;curved=1;rounded=0;orthogonalLoop=1;jettySize=auto;html=1;fontSize=12;" parent="1" source="65cZlFvj0mOp-KRwFTWv-34" target="65cZlFvj0mOp-KRwFTWv-36" edge="1">
          <mxGeometry relative="1" as="geometry" />
        </mxCell>
        <mxCell id="65cZlFvj0mOp-KRwFTWv-40" style="edgeStyle=orthogonalEdgeStyle;curved=1;rounded=0;orthogonalLoop=1;jettySize=auto;html=1;fontSize=12;" parent="1" source="65cZlFvj0mOp-KRwFTWv-34" target="65cZlFvj0mOp-KRwFTWv-37" edge="1">
          <mxGeometry relative="1" as="geometry" />
        </mxCell>
        <mxCell id="65cZlFvj0mOp-KRwFTWv-41" style="edgeStyle=orthogonalEdgeStyle;curved=1;rounded=0;orthogonalLoop=1;jettySize=auto;html=1;entryX=0;entryY=0.5;entryDx=0;entryDy=0;fontSize=12;" parent="1" source="65cZlFvj0mOp-KRwFTWv-34" target="65cZlFvj0mOp-KRwFTWv-38" edge="1">
          <mxGeometry relative="1" as="geometry" />
        </mxCell>
        <mxCell id="hZrphyVDv4pvbZArS3AW-86" style="edgeStyle=orthogonalEdgeStyle;curved=1;rounded=0;orthogonalLoop=1;jettySize=auto;html=1;entryX=0;entryY=0.5;entryDx=0;entryDy=0;fontSize=12;fontColor=#330000;strokeColor=#330000;strokeWidth=1;" parent="1" source="65cZlFvj0mOp-KRwFTWv-34" target="hZrphyVDv4pvbZArS3AW-85" edge="1">
          <mxGeometry relative="1" as="geometry" />
        </mxCell>
        <mxCell id="65cZlFvj0mOp-KRwFTWv-34" value="手下" style="ellipse;whiteSpace=wrap;html=1;aspect=fixed;fontSize=12;" parent="1" vertex="1">
          <mxGeometry x="1020" y="450" width="50" height="50" as="geometry" />
        </mxCell>
        <mxCell id="65cZlFvj0mOp-KRwFTWv-43" style="edgeStyle=orthogonalEdgeStyle;curved=1;rounded=0;orthogonalLoop=1;jettySize=auto;html=1;entryX=0.4;entryY=0.5;entryDx=0;entryDy=0;entryPerimeter=0;fontSize=12;" parent="1" source="65cZlFvj0mOp-KRwFTWv-36" target="65cZlFvj0mOp-KRwFTWv-42" edge="1">
          <mxGeometry relative="1" as="geometry" />
        </mxCell>
        <mxCell id="65cZlFvj0mOp-KRwFTWv-44" value="发明" style="edgeLabel;html=1;align=center;verticalAlign=middle;resizable=0;points=[];fontSize=12;" parent="65cZlFvj0mOp-KRwFTWv-43" vertex="1" connectable="0">
          <mxGeometry x="-0.3091" y="-1" relative="1" as="geometry">
            <mxPoint x="12" y="-1" as="offset" />
          </mxGeometry>
        </mxCell>
        <mxCell id="65cZlFvj0mOp-KRwFTWv-36" value="风后" style="rounded=1;whiteSpace=wrap;html=1;fontSize=12;" parent="1" vertex="1">
          <mxGeometry x="1170" y="410" width="60" height="30" as="geometry" />
        </mxCell>
        <mxCell id="65cZlFvj0mOp-KRwFTWv-37" value="应龙" style="rounded=1;whiteSpace=wrap;html=1;fontSize=12;" parent="1" vertex="1">
          <mxGeometry x="1300" y="460" width="60" height="30" as="geometry" />
        </mxCell>
        <mxCell id="hZrphyVDv4pvbZArS3AW-90" style="edgeStyle=orthogonalEdgeStyle;curved=1;rounded=0;orthogonalLoop=1;jettySize=auto;html=1;fontSize=12;fontColor=#330000;strokeColor=#330000;strokeWidth=1;" parent="1" source="65cZlFvj0mOp-KRwFTWv-38" target="hZrphyVDv4pvbZArS3AW-89" edge="1">
          <mxGeometry relative="1" as="geometry" />
        </mxCell>
        <mxCell id="hZrphyVDv4pvbZArS3AW-91" value="给黄帝" style="edgeLabel;html=1;align=center;verticalAlign=middle;resizable=0;points=[];fontSize=12;fontColor=#330000;" parent="hZrphyVDv4pvbZArS3AW-90" vertex="1" connectable="0">
          <mxGeometry x="0.0571" y="-1" relative="1" as="geometry">
            <mxPoint y="1" as="offset" />
          </mxGeometry>
        </mxCell>
        <mxCell id="65cZlFvj0mOp-KRwFTWv-38" value="玄女&lt;br&gt;人兽鸟身" style="rounded=1;whiteSpace=wrap;html=1;fontSize=12;" parent="1" vertex="1">
          <mxGeometry x="1170" y="510" width="60" height="30" as="geometry" />
        </mxCell>
        <mxCell id="65cZlFvj0mOp-KRwFTWv-47" style="edgeStyle=orthogonalEdgeStyle;curved=1;rounded=0;orthogonalLoop=1;jettySize=auto;html=1;fontSize=12;" parent="1" source="65cZlFvj0mOp-KRwFTWv-42" target="65cZlFvj0mOp-KRwFTWv-45" edge="1">
          <mxGeometry relative="1" as="geometry" />
        </mxCell>
        <mxCell id="65cZlFvj0mOp-KRwFTWv-48" value="破除妖术" style="edgeLabel;html=1;align=center;verticalAlign=middle;resizable=0;points=[];fontSize=12;" parent="65cZlFvj0mOp-KRwFTWv-47" vertex="1" connectable="0">
          <mxGeometry x="0.2364" y="1" relative="1" as="geometry">
            <mxPoint x="1" y="13" as="offset" />
          </mxGeometry>
        </mxCell>
        <mxCell id="65cZlFvj0mOp-KRwFTWv-42" value="指南车" style="rounded=0;whiteSpace=wrap;html=1;fontSize=12;" parent="1" vertex="1">
          <mxGeometry x="1320" y="415" width="50" height="20" as="geometry" />
        </mxCell>
        <mxCell id="65cZlFvj0mOp-KRwFTWv-45" value="漫天大雾" style="rounded=0;whiteSpace=wrap;html=1;fontSize=12;" parent="1" vertex="1">
          <mxGeometry x="1315" y="305" width="60" height="20" as="geometry" />
        </mxCell>
        <mxCell id="65cZlFvj0mOp-KRwFTWv-51" value="发明" style="edgeStyle=orthogonalEdgeStyle;curved=1;rounded=0;orthogonalLoop=1;jettySize=auto;html=1;fontSize=12;" parent="1" source="65cZlFvj0mOp-KRwFTWv-49" target="65cZlFvj0mOp-KRwFTWv-50" edge="1">
          <mxGeometry x="-0.2258" y="-25" relative="1" as="geometry">
            <mxPoint as="offset" />
          </mxGeometry>
        </mxCell>
        <mxCell id="65cZlFvj0mOp-KRwFTWv-49" value="仓颉" style="rounded=1;whiteSpace=wrap;html=1;fontSize=12;" parent="1" vertex="1">
          <mxGeometry x="1170" y="550" width="60" height="30" as="geometry" />
        </mxCell>
        <mxCell id="65cZlFvj0mOp-KRwFTWv-50" value="文字" style="rounded=0;whiteSpace=wrap;html=1;fontSize=12;" parent="1" vertex="1">
          <mxGeometry x="1305" y="620" width="50" height="20" as="geometry" />
        </mxCell>
        <mxCell id="65cZlFvj0mOp-KRwFTWv-56" value="母亲" style="edgeStyle=orthogonalEdgeStyle;curved=1;rounded=0;orthogonalLoop=1;jettySize=auto;html=1;fontSize=12;" parent="1" source="65cZlFvj0mOp-KRwFTWv-52" target="65cZlFvj0mOp-KRwFTWv-55" edge="1">
          <mxGeometry relative="1" as="geometry" />
        </mxCell>
        <mxCell id="65cZlFvj0mOp-KRwFTWv-59" style="edgeStyle=orthogonalEdgeStyle;curved=1;rounded=0;orthogonalLoop=1;jettySize=auto;html=1;entryX=0;entryY=0.5;entryDx=0;entryDy=0;fontSize=12;" parent="1" source="65cZlFvj0mOp-KRwFTWv-52" target="65cZlFvj0mOp-KRwFTWv-58" edge="1">
          <mxGeometry relative="1" as="geometry" />
        </mxCell>
        <mxCell id="65cZlFvj0mOp-KRwFTWv-61" value="发现" style="edgeLabel;html=1;align=center;verticalAlign=middle;resizable=0;points=[];fontSize=12;" parent="65cZlFvj0mOp-KRwFTWv-59" vertex="1" connectable="0">
          <mxGeometry x="-0.04" y="2" relative="1" as="geometry">
            <mxPoint as="offset" />
          </mxGeometry>
        </mxCell>
        <mxCell id="65cZlFvj0mOp-KRwFTWv-52" value="&lt;span style=&quot;color: rgb(51 , 51 , 51) ; font-family: &amp;#34;arial&amp;#34; ; font-size: 11px ; background-color: rgb(255 , 255 , 255)&quot;&gt;嫘祖&lt;br&gt;西陵氏&lt;br&gt;&lt;/span&gt;" style="rounded=1;whiteSpace=wrap;html=1;fontSize=11;" parent="1" vertex="1">
          <mxGeometry x="910" y="340" width="60" height="30" as="geometry" />
        </mxCell>
        <mxCell id="65cZlFvj0mOp-KRwFTWv-66" style="edgeStyle=orthogonalEdgeStyle;curved=1;rounded=0;orthogonalLoop=1;jettySize=auto;html=1;fontSize=12;" parent="1" source="65cZlFvj0mOp-KRwFTWv-55" target="65cZlFvj0mOp-KRwFTWv-64" edge="1">
          <mxGeometry relative="1" as="geometry" />
        </mxCell>
        <mxCell id="hZrphyVDv4pvbZArS3AW-56" value="长子" style="edgeLabel;html=1;align=center;verticalAlign=middle;resizable=0;points=[];fontSize=12;" parent="65cZlFvj0mOp-KRwFTWv-66" vertex="1" connectable="0">
          <mxGeometry x="0.019" y="-2" relative="1" as="geometry">
            <mxPoint as="offset" />
          </mxGeometry>
        </mxCell>
        <mxCell id="65cZlFvj0mOp-KRwFTWv-67" style="edgeStyle=orthogonalEdgeStyle;curved=1;rounded=0;orthogonalLoop=1;jettySize=auto;html=1;fontSize=12;" parent="1" source="65cZlFvj0mOp-KRwFTWv-55" target="65cZlFvj0mOp-KRwFTWv-65" edge="1">
          <mxGeometry relative="1" as="geometry" />
        </mxCell>
        <mxCell id="hZrphyVDv4pvbZArS3AW-57" value="次子" style="edgeLabel;html=1;align=center;verticalAlign=middle;resizable=0;points=[];fontSize=12;" parent="65cZlFvj0mOp-KRwFTWv-67" vertex="1" connectable="0">
          <mxGeometry x="-0.5304" y="-2" relative="1" as="geometry">
            <mxPoint as="offset" />
          </mxGeometry>
        </mxCell>
        <mxCell id="65cZlFvj0mOp-KRwFTWv-165" style="edgeStyle=orthogonalEdgeStyle;curved=1;rounded=0;orthogonalLoop=1;jettySize=auto;html=1;exitX=0;exitY=1;exitDx=0;exitDy=0;entryX=0.5;entryY=0;entryDx=0;entryDy=0;fontSize=12;strokeColor=#330000;strokeWidth=1;" parent="1" source="65cZlFvj0mOp-KRwFTWv-55" target="65cZlFvj0mOp-KRwFTWv-163" edge="1">
          <mxGeometry relative="1" as="geometry" />
        </mxCell>
        <mxCell id="65cZlFvj0mOp-KRwFTWv-168" value="第三子" style="edgeLabel;html=1;align=center;verticalAlign=middle;resizable=0;points=[];fontSize=12;" parent="65cZlFvj0mOp-KRwFTWv-165" vertex="1" connectable="0">
          <mxGeometry x="-0.0643" y="6" relative="1" as="geometry">
            <mxPoint as="offset" />
          </mxGeometry>
        </mxCell>
        <mxCell id="65cZlFvj0mOp-KRwFTWv-55" value="儿子" style="ellipse;whiteSpace=wrap;html=1;aspect=fixed;fontSize=12;" parent="1" vertex="1">
          <mxGeometry x="820" y="440" width="50" height="50" as="geometry" />
        </mxCell>
        <mxCell id="65cZlFvj0mOp-KRwFTWv-58" value="蚕丝" style="rounded=0;whiteSpace=wrap;html=1;fontSize=12;" parent="1" vertex="1">
          <mxGeometry x="1020" y="535" width="50" height="20" as="geometry" />
        </mxCell>
        <mxCell id="65cZlFvj0mOp-KRwFTWv-62" style="edgeStyle=orthogonalEdgeStyle;curved=1;rounded=0;orthogonalLoop=1;jettySize=auto;html=1;entryX=0.5;entryY=1;entryDx=0;entryDy=0;fontSize=12;" parent="1" source="65cZlFvj0mOp-KRwFTWv-60" target="65cZlFvj0mOp-KRwFTWv-58" edge="1">
          <mxGeometry relative="1" as="geometry" />
        </mxCell>
        <mxCell id="65cZlFvj0mOp-KRwFTWv-63" value="做蚕丝衣服" style="edgeLabel;html=1;align=center;verticalAlign=middle;resizable=0;points=[];fontSize=12;" parent="65cZlFvj0mOp-KRwFTWv-62" vertex="1" connectable="0">
          <mxGeometry x="-0.0667" y="-17" relative="1" as="geometry">
            <mxPoint as="offset" />
          </mxGeometry>
        </mxCell>
        <mxCell id="65cZlFvj0mOp-KRwFTWv-60" value="伯余" style="rounded=1;whiteSpace=wrap;html=1;fontSize=12;" parent="1" vertex="1">
          <mxGeometry x="1170" y="590" width="60" height="30" as="geometry" />
        </mxCell>
        <mxCell id="65cZlFvj0mOp-KRwFTWv-159" style="edgeStyle=orthogonalEdgeStyle;curved=1;rounded=0;orthogonalLoop=1;jettySize=auto;html=1;fontSize=12;strokeColor=#330000;strokeWidth=1;" parent="1" source="65cZlFvj0mOp-KRwFTWv-64" target="65cZlFvj0mOp-KRwFTWv-158" edge="1">
          <mxGeometry relative="1" as="geometry" />
        </mxCell>
        <mxCell id="65cZlFvj0mOp-KRwFTWv-161" value="生子" style="edgeLabel;html=1;align=center;verticalAlign=middle;resizable=0;points=[];fontSize=12;" parent="65cZlFvj0mOp-KRwFTWv-159" vertex="1" connectable="0">
          <mxGeometry x="-0.3455" y="1" relative="1" as="geometry">
            <mxPoint as="offset" />
          </mxGeometry>
        </mxCell>
        <mxCell id="65cZlFvj0mOp-KRwFTWv-64" value="玄嚣（少昊）&lt;br&gt;&lt;span style=&quot;color: rgb(51 , 51 , 51) ; font-family: &amp;#34;helvetica neue&amp;#34; , &amp;#34;helvetica&amp;#34; , &amp;#34;arial&amp;#34; , &amp;#34;pingfang sc&amp;#34; , &amp;#34;hiragino sans gb&amp;#34; , &amp;#34;microsoft yahei&amp;#34; , &amp;#34;wenquanyi micro hei&amp;#34; , sans-serif&quot;&gt;青阳氏&lt;/span&gt;" style="rounded=1;whiteSpace=wrap;html=1;fontSize=12;fillColor=#d5e8d4;strokeColor=#82b366;" parent="1" vertex="1">
          <mxGeometry x="530" y="530" width="80" height="30" as="geometry" />
        </mxCell>
        <mxCell id="65cZlFvj0mOp-KRwFTWv-72" value="生子" style="edgeStyle=orthogonalEdgeStyle;curved=1;rounded=0;orthogonalLoop=1;jettySize=auto;html=1;fontSize=12;" parent="1" source="65cZlFvj0mOp-KRwFTWv-65" target="65cZlFvj0mOp-KRwFTWv-71" edge="1">
          <mxGeometry x="0.3846" y="-20" relative="1" as="geometry">
            <mxPoint as="offset" />
          </mxGeometry>
        </mxCell>
        <mxCell id="65cZlFvj0mOp-KRwFTWv-65" value="昌意" style="rounded=1;whiteSpace=wrap;html=1;fontSize=12;" parent="1" vertex="1">
          <mxGeometry x="785" y="530" width="60" height="30" as="geometry" />
        </mxCell>
        <mxCell id="65cZlFvj0mOp-KRwFTWv-81" style="edgeStyle=orthogonalEdgeStyle;curved=1;rounded=0;orthogonalLoop=1;jettySize=auto;html=1;fontSize=12;" parent="1" source="65cZlFvj0mOp-KRwFTWv-68" target="65cZlFvj0mOp-KRwFTWv-80" edge="1">
          <mxGeometry relative="1" as="geometry" />
        </mxCell>
        <mxCell id="65cZlFvj0mOp-KRwFTWv-114" style="edgeStyle=orthogonalEdgeStyle;curved=1;rounded=0;orthogonalLoop=1;jettySize=auto;html=1;entryX=1;entryY=0.5;entryDx=0;entryDy=0;fontSize=12;strokeWidth=2;strokeColor=#FF0000;" parent="1" source="65cZlFvj0mOp-KRwFTWv-68" target="65cZlFvj0mOp-KRwFTWv-94" edge="1">
          <mxGeometry relative="1" as="geometry">
            <Array as="points">
              <mxPoint x="870" y="655" />
              <mxPoint x="870" y="1015" />
            </Array>
          </mxGeometry>
        </mxCell>
        <mxCell id="65cZlFvj0mOp-KRwFTWv-115" value="传位给儿子" style="edgeLabel;html=1;align=center;verticalAlign=middle;resizable=0;points=[];fontSize=12;" parent="65cZlFvj0mOp-KRwFTWv-114" vertex="1" connectable="0">
          <mxGeometry x="0.3145" y="-2" relative="1" as="geometry">
            <mxPoint y="1" as="offset" />
          </mxGeometry>
        </mxCell>
        <mxCell id="65cZlFvj0mOp-KRwFTWv-126" style="edgeStyle=orthogonalEdgeStyle;curved=1;rounded=0;orthogonalLoop=1;jettySize=auto;html=1;entryX=1;entryY=0.5;entryDx=0;entryDy=0;fontSize=12;strokeColor=#330000;strokeWidth=1;" parent="1" source="65cZlFvj0mOp-KRwFTWv-68" target="65cZlFvj0mOp-KRwFTWv-125" edge="1">
          <mxGeometry relative="1" as="geometry" />
        </mxCell>
        <mxCell id="65cZlFvj0mOp-KRwFTWv-131" value="生子" style="edgeLabel;html=1;align=center;verticalAlign=middle;resizable=0;points=[];fontSize=12;" parent="65cZlFvj0mOp-KRwFTWv-126" vertex="1" connectable="0">
          <mxGeometry x="0.1167" y="2" relative="1" as="geometry">
            <mxPoint as="offset" />
          </mxGeometry>
        </mxCell>
        <mxCell id="65cZlFvj0mOp-KRwFTWv-130" value="生子" style="edgeStyle=orthogonalEdgeStyle;curved=1;rounded=0;orthogonalLoop=1;jettySize=auto;html=1;entryX=1;entryY=0.5;entryDx=0;entryDy=0;fontSize=11;strokeColor=#330000;strokeWidth=1;" parent="1" source="65cZlFvj0mOp-KRwFTWv-68" target="65cZlFvj0mOp-KRwFTWv-129" edge="1">
          <mxGeometry relative="1" as="geometry" />
        </mxCell>
        <mxCell id="65cZlFvj0mOp-KRwFTWv-68" value="高辛（帝喾）" style="rounded=1;whiteSpace=wrap;html=1;fontSize=12;fillColor=#d5e8d4;strokeColor=#82b366;" parent="1" vertex="1">
          <mxGeometry x="530" y="640" width="80" height="30" as="geometry" />
        </mxCell>
        <mxCell id="65cZlFvj0mOp-KRwFTWv-70" value="嫁给" style="edgeStyle=orthogonalEdgeStyle;curved=1;rounded=0;orthogonalLoop=1;jettySize=auto;html=1;fontSize=12;" parent="1" source="65cZlFvj0mOp-KRwFTWv-69" target="65cZlFvj0mOp-KRwFTWv-65" edge="1">
          <mxGeometry x="-0.3333" relative="1" as="geometry">
            <mxPoint as="offset" />
          </mxGeometry>
        </mxCell>
        <mxCell id="65cZlFvj0mOp-KRwFTWv-140" style="edgeStyle=orthogonalEdgeStyle;curved=1;rounded=0;orthogonalLoop=1;jettySize=auto;html=1;fontSize=11;strokeColor=#330000;strokeWidth=1;" parent="1" source="65cZlFvj0mOp-KRwFTWv-69" target="65cZlFvj0mOp-KRwFTWv-71" edge="1">
          <mxGeometry relative="1" as="geometry" />
        </mxCell>
        <mxCell id="65cZlFvj0mOp-KRwFTWv-141" value="母亲生子" style="edgeLabel;html=1;align=center;verticalAlign=middle;resizable=0;points=[];fontSize=11;" parent="65cZlFvj0mOp-KRwFTWv-140" vertex="1" connectable="0">
          <mxGeometry x="-0.0842" relative="1" as="geometry">
            <mxPoint y="-11" as="offset" />
          </mxGeometry>
        </mxCell>
        <mxCell id="65cZlFvj0mOp-KRwFTWv-69" value="昌仆&lt;br&gt;蜀山氏" style="rounded=1;whiteSpace=wrap;html=1;fontSize=12;" parent="1" vertex="1">
          <mxGeometry x="920" y="525" width="60" height="30" as="geometry" />
        </mxCell>
        <mxCell id="65cZlFvj0mOp-KRwFTWv-74" style="edgeStyle=orthogonalEdgeStyle;curved=1;rounded=0;orthogonalLoop=1;jettySize=auto;html=1;fontSize=12;strokeColor=#FF0000;strokeWidth=2;" parent="1" source="65cZlFvj0mOp-KRwFTWv-71" target="65cZlFvj0mOp-KRwFTWv-68" edge="1">
          <mxGeometry relative="1" as="geometry" />
        </mxCell>
        <mxCell id="65cZlFvj0mOp-KRwFTWv-75" value="叔叔传位给侄子" style="edgeLabel;html=1;align=center;verticalAlign=middle;resizable=0;points=[];fontSize=12;" parent="65cZlFvj0mOp-KRwFTWv-74" vertex="1" connectable="0">
          <mxGeometry x="-0.2222" y="1" relative="1" as="geometry">
            <mxPoint as="offset" />
          </mxGeometry>
        </mxCell>
        <mxCell id="65cZlFvj0mOp-KRwFTWv-77" style="edgeStyle=orthogonalEdgeStyle;curved=1;rounded=0;orthogonalLoop=1;jettySize=auto;html=1;fontSize=12;" parent="1" source="65cZlFvj0mOp-KRwFTWv-71" target="65cZlFvj0mOp-KRwFTWv-76" edge="1">
          <mxGeometry relative="1" as="geometry" />
        </mxCell>
        <mxCell id="65cZlFvj0mOp-KRwFTWv-78" value="生子" style="edgeLabel;html=1;align=center;verticalAlign=middle;resizable=0;points=[];fontSize=12;" parent="65cZlFvj0mOp-KRwFTWv-77" vertex="1" connectable="0">
          <mxGeometry x="-0.15" y="1" relative="1" as="geometry">
            <mxPoint as="offset" />
          </mxGeometry>
        </mxCell>
        <mxCell id="hZrphyVDv4pvbZArS3AW-62" style="edgeStyle=orthogonalEdgeStyle;rounded=0;orthogonalLoop=1;jettySize=auto;html=1;fontSize=12;fontColor=#330000;strokeColor=#330000;strokeWidth=1;" parent="1" source="65cZlFvj0mOp-KRwFTWv-71" target="65cZlFvj0mOp-KRwFTWv-172" edge="1">
          <mxGeometry relative="1" as="geometry" />
        </mxCell>
        <mxCell id="hZrphyVDv4pvbZArS3AW-63" value="打败" style="edgeLabel;html=1;align=center;verticalAlign=middle;resizable=0;points=[];fontSize=12;fontColor=#330000;" parent="hZrphyVDv4pvbZArS3AW-62" vertex="1" connectable="0">
          <mxGeometry x="0.4064" relative="1" as="geometry">
            <mxPoint x="12" as="offset" />
          </mxGeometry>
        </mxCell>
        <mxCell id="65cZlFvj0mOp-KRwFTWv-71" value="高阳（颛顼）" style="rounded=1;whiteSpace=wrap;html=1;fontSize=12;fillColor=#d5e8d4;strokeColor=#82b366;" parent="1" vertex="1">
          <mxGeometry x="870" y="640" width="80" height="30" as="geometry" />
        </mxCell>
        <mxCell id="65cZlFvj0mOp-KRwFTWv-189" style="edgeStyle=orthogonalEdgeStyle;curved=1;rounded=0;orthogonalLoop=1;jettySize=auto;html=1;fontSize=12;strokeColor=#330000;strokeWidth=1;" parent="1" source="65cZlFvj0mOp-KRwFTWv-76" target="65cZlFvj0mOp-KRwFTWv-188" edge="1">
          <mxGeometry relative="1" as="geometry" />
        </mxCell>
        <mxCell id="65cZlFvj0mOp-KRwFTWv-194" value="生子" style="edgeLabel;html=1;align=center;verticalAlign=middle;resizable=0;points=[];fontSize=12;" parent="65cZlFvj0mOp-KRwFTWv-189" vertex="1" connectable="0">
          <mxGeometry x="-0.2" y="1" relative="1" as="geometry">
            <mxPoint y="1" as="offset" />
          </mxGeometry>
        </mxCell>
        <mxCell id="65cZlFvj0mOp-KRwFTWv-76" value="穷蝉" style="rounded=1;whiteSpace=wrap;html=1;fontSize=12;" parent="1" vertex="1">
          <mxGeometry x="880" y="750" width="60" height="30" as="geometry" />
        </mxCell>
        <mxCell id="65cZlFvj0mOp-KRwFTWv-89" style="edgeStyle=orthogonalEdgeStyle;curved=1;rounded=0;orthogonalLoop=1;jettySize=auto;html=1;fontSize=12;" parent="1" source="65cZlFvj0mOp-KRwFTWv-79" target="65cZlFvj0mOp-KRwFTWv-88" edge="1">
          <mxGeometry relative="1" as="geometry" />
        </mxCell>
        <mxCell id="65cZlFvj0mOp-KRwFTWv-90" value="生子" style="edgeLabel;html=1;align=center;verticalAlign=middle;resizable=0;points=[];fontSize=12;" parent="65cZlFvj0mOp-KRwFTWv-89" vertex="1" connectable="0">
          <mxGeometry x="-0.2" y="-2" relative="1" as="geometry">
            <mxPoint as="offset" />
          </mxGeometry>
        </mxCell>
        <mxCell id="65cZlFvj0mOp-KRwFTWv-79" value="&lt;span style=&quot;color: rgb(32 , 33 , 36) ; font-family: &amp;#34;menlo&amp;#34; , monospace ; font-size: 11px ; text-align: left ; background-color: rgb(255 , 255 , 255)&quot;&gt;姜嫄&lt;br&gt;有邰氏&lt;br&gt;&lt;/span&gt;" style="rounded=1;whiteSpace=wrap;html=1;fontSize=12;" parent="1" vertex="1">
          <mxGeometry x="311" y="910" width="60" height="30" as="geometry" />
        </mxCell>
        <mxCell id="65cZlFvj0mOp-KRwFTWv-82" style="edgeStyle=orthogonalEdgeStyle;curved=1;rounded=0;orthogonalLoop=1;jettySize=auto;html=1;fontSize=12;" parent="1" source="65cZlFvj0mOp-KRwFTWv-80" target="65cZlFvj0mOp-KRwFTWv-79" edge="1">
          <mxGeometry relative="1" as="geometry" />
        </mxCell>
        <mxCell id="65cZlFvj0mOp-KRwFTWv-83" value="元妃" style="edgeLabel;html=1;align=center;verticalAlign=middle;resizable=0;points=[];fontSize=12;" parent="65cZlFvj0mOp-KRwFTWv-82" vertex="1" connectable="0">
          <mxGeometry x="0.2909" y="12" relative="1" as="geometry">
            <mxPoint as="offset" />
          </mxGeometry>
        </mxCell>
        <mxCell id="65cZlFvj0mOp-KRwFTWv-101" style="edgeStyle=orthogonalEdgeStyle;curved=1;rounded=0;orthogonalLoop=1;jettySize=auto;html=1;fontSize=12;" parent="1" source="65cZlFvj0mOp-KRwFTWv-80" target="65cZlFvj0mOp-KRwFTWv-84" edge="1">
          <mxGeometry relative="1" as="geometry" />
        </mxCell>
        <mxCell id="65cZlFvj0mOp-KRwFTWv-177" value="次妃" style="edgeLabel;html=1;align=center;verticalAlign=middle;resizable=0;points=[];fontSize=12;" parent="65cZlFvj0mOp-KRwFTWv-101" vertex="1" connectable="0">
          <mxGeometry x="0.31" y="5" relative="1" as="geometry">
            <mxPoint as="offset" />
          </mxGeometry>
        </mxCell>
        <mxCell id="65cZlFvj0mOp-KRwFTWv-102" style="edgeStyle=orthogonalEdgeStyle;curved=1;rounded=0;orthogonalLoop=1;jettySize=auto;html=1;fontSize=12;" parent="1" source="65cZlFvj0mOp-KRwFTWv-80" target="65cZlFvj0mOp-KRwFTWv-86" edge="1">
          <mxGeometry relative="1" as="geometry" />
        </mxCell>
        <mxCell id="65cZlFvj0mOp-KRwFTWv-178" value="三妃" style="edgeLabel;html=1;align=center;verticalAlign=middle;resizable=0;points=[];fontSize=12;" parent="65cZlFvj0mOp-KRwFTWv-102" vertex="1" connectable="0">
          <mxGeometry x="0.2778" y="-3" relative="1" as="geometry">
            <mxPoint as="offset" />
          </mxGeometry>
        </mxCell>
        <mxCell id="65cZlFvj0mOp-KRwFTWv-103" style="edgeStyle=orthogonalEdgeStyle;curved=1;rounded=0;orthogonalLoop=1;jettySize=auto;html=1;entryX=0.5;entryY=0;entryDx=0;entryDy=0;fontSize=12;" parent="1" source="65cZlFvj0mOp-KRwFTWv-80" target="65cZlFvj0mOp-KRwFTWv-87" edge="1">
          <mxGeometry relative="1" as="geometry" />
        </mxCell>
        <mxCell id="65cZlFvj0mOp-KRwFTWv-179" value="四妃" style="edgeLabel;html=1;align=center;verticalAlign=middle;resizable=0;points=[];fontSize=12;" parent="65cZlFvj0mOp-KRwFTWv-103" vertex="1" connectable="0">
          <mxGeometry x="-0.048" y="-7" relative="1" as="geometry">
            <mxPoint y="1" as="offset" />
          </mxGeometry>
        </mxCell>
        <mxCell id="65cZlFvj0mOp-KRwFTWv-80" value="妻子" style="ellipse;whiteSpace=wrap;html=1;aspect=fixed;fontSize=12;" parent="1" vertex="1">
          <mxGeometry x="476" y="830" width="50" height="50" as="geometry" />
        </mxCell>
        <mxCell id="65cZlFvj0mOp-KRwFTWv-92" style="edgeStyle=orthogonalEdgeStyle;curved=1;rounded=0;orthogonalLoop=1;jettySize=auto;html=1;fontSize=12;" parent="1" source="65cZlFvj0mOp-KRwFTWv-84" target="65cZlFvj0mOp-KRwFTWv-91" edge="1">
          <mxGeometry relative="1" as="geometry" />
        </mxCell>
        <mxCell id="hZrphyVDv4pvbZArS3AW-11" value="生子" style="edgeLabel;html=1;align=center;verticalAlign=middle;resizable=0;points=[];" parent="65cZlFvj0mOp-KRwFTWv-92" vertex="1" connectable="0">
          <mxGeometry x="-0.1" y="-1" relative="1" as="geometry">
            <mxPoint as="offset" />
          </mxGeometry>
        </mxCell>
        <mxCell id="65cZlFvj0mOp-KRwFTWv-84" value="&lt;span style=&quot;color: rgb(32 , 33 , 36) ; font-family: &amp;#34;menlo&amp;#34; , monospace ; font-size: 11px ; text-align: left ; background-color: rgb(255 , 255 , 255)&quot;&gt;简狄&lt;br&gt;&lt;/span&gt;&lt;span style=&quot;color: rgb(32 , 33 , 36) ; font-family: &amp;#34;menlo&amp;#34; , monospace ; font-size: 11px ; text-align: left ; background-color: rgb(255 , 255 , 255)&quot;&gt;有戎氏&lt;br&gt;&lt;/span&gt;" style="rounded=1;whiteSpace=wrap;html=1;fontSize=12;" parent="1" vertex="1">
          <mxGeometry x="401" y="910" width="60" height="30" as="geometry" />
        </mxCell>
        <mxCell id="65cZlFvj0mOp-KRwFTWv-104" style="edgeStyle=orthogonalEdgeStyle;curved=1;rounded=0;orthogonalLoop=1;jettySize=auto;html=1;fontSize=12;" parent="1" source="65cZlFvj0mOp-KRwFTWv-86" target="65cZlFvj0mOp-KRwFTWv-93" edge="1">
          <mxGeometry relative="1" as="geometry" />
        </mxCell>
        <mxCell id="hZrphyVDv4pvbZArS3AW-12" value="生子" style="edgeLabel;html=1;align=center;verticalAlign=middle;resizable=0;points=[];" parent="65cZlFvj0mOp-KRwFTWv-104" vertex="1" connectable="0">
          <mxGeometry x="-0.1333" relative="1" as="geometry">
            <mxPoint as="offset" />
          </mxGeometry>
        </mxCell>
        <mxCell id="65cZlFvj0mOp-KRwFTWv-86" value="&lt;span style=&quot;color: rgb(32 , 33 , 36) ; font-family: &amp;#34;menlo&amp;#34; , monospace ; font-size: 11px ; text-align: left ; background-color: rgb(255 , 255 , 255)&quot;&gt;庆都&lt;br&gt;&lt;/span&gt;&lt;span style=&quot;color: rgb(32 , 33 , 36) ; font-family: &amp;#34;menlo&amp;#34; , monospace ; font-size: 11px ; text-align: left ; background-color: rgb(255 , 255 , 255)&quot;&gt;陈锋氏&lt;br&gt;&lt;/span&gt;" style="rounded=1;whiteSpace=wrap;html=1;fontSize=12;" parent="1" vertex="1">
          <mxGeometry x="600" y="910" width="60" height="30" as="geometry" />
        </mxCell>
        <mxCell id="65cZlFvj0mOp-KRwFTWv-100" style="edgeStyle=orthogonalEdgeStyle;curved=1;rounded=0;orthogonalLoop=1;jettySize=auto;html=1;entryX=0.5;entryY=0;entryDx=0;entryDy=0;fontSize=12;" parent="1" source="65cZlFvj0mOp-KRwFTWv-87" target="65cZlFvj0mOp-KRwFTWv-94" edge="1">
          <mxGeometry relative="1" as="geometry" />
        </mxCell>
        <mxCell id="hZrphyVDv4pvbZArS3AW-13" value="生子" style="edgeLabel;html=1;align=center;verticalAlign=middle;resizable=0;points=[];" parent="65cZlFvj0mOp-KRwFTWv-100" vertex="1" connectable="0">
          <mxGeometry x="-0.2333" relative="1" as="geometry">
            <mxPoint as="offset" />
          </mxGeometry>
        </mxCell>
        <mxCell id="65cZlFvj0mOp-KRwFTWv-87" value="&lt;span style=&quot;color: rgb(32 , 33 , 36) ; font-family: &amp;quot;menlo&amp;quot; , monospace ; font-size: 11px ; text-align: left ; background-color: rgb(255 , 255 , 255)&quot;&gt;常仪&lt;br&gt;&lt;/span&gt;&lt;span style=&quot;text-align: left ; background-color: rgb(255 , 255 , 255)&quot;&gt;&lt;font color=&quot;#202124&quot; face=&quot;menlo, monospace&quot;&gt;&lt;span style=&quot;font-size: 11px&quot;&gt;娵訾氏&amp;nbsp;&lt;/span&gt;&lt;/font&gt;&lt;/span&gt;&lt;span style=&quot;color: rgb(51, 51, 51); font-family: Arial, sans-serif; font-size: 13px; text-align: start; background-color: rgb(255, 255, 255);&quot;&gt;jū zī&amp;nbsp;&lt;/span&gt;&lt;span style=&quot;text-align: left ; background-color: rgb(255 , 255 , 255)&quot;&gt;&lt;br&gt;&lt;/span&gt;" style="rounded=1;whiteSpace=wrap;html=1;fontSize=12;" parent="1" vertex="1">
          <mxGeometry x="735" y="910" width="110" height="30" as="geometry" />
        </mxCell>
        <mxCell id="65cZlFvj0mOp-KRwFTWv-106" value="始祖" style="edgeStyle=orthogonalEdgeStyle;curved=1;rounded=0;orthogonalLoop=1;jettySize=auto;html=1;entryX=0.5;entryY=0;entryDx=0;entryDy=0;fontSize=12;" parent="1" source="65cZlFvj0mOp-KRwFTWv-88" target="65cZlFvj0mOp-KRwFTWv-105" edge="1">
          <mxGeometry relative="1" as="geometry" />
        </mxCell>
        <mxCell id="65cZlFvj0mOp-KRwFTWv-88" value="&lt;span style=&quot;color: rgb(32 , 33 , 36) ; font-family: &amp;#34;menlo&amp;#34; , monospace ; font-size: 11px ; text-align: left ; background-color: rgb(255 , 255 , 255)&quot;&gt;弃（后稷）&lt;/span&gt;&lt;span style=&quot;color: rgb(32 , 33 , 36) ; font-family: &amp;#34;menlo&amp;#34; , monospace ; font-size: 11px ; text-align: left ; background-color: rgb(255 , 255 , 255)&quot;&gt;&lt;br&gt;&lt;/span&gt;" style="rounded=1;whiteSpace=wrap;html=1;fontSize=12;" parent="1" vertex="1">
          <mxGeometry x="301" y="1000" width="80" height="30" as="geometry" />
        </mxCell>
        <mxCell id="65cZlFvj0mOp-KRwFTWv-108" style="edgeStyle=orthogonalEdgeStyle;curved=1;rounded=0;orthogonalLoop=1;jettySize=auto;html=1;fontSize=12;" parent="1" source="65cZlFvj0mOp-KRwFTWv-91" target="65cZlFvj0mOp-KRwFTWv-107" edge="1">
          <mxGeometry relative="1" as="geometry" />
        </mxCell>
        <mxCell id="65cZlFvj0mOp-KRwFTWv-109" value="始祖" style="edgeLabel;html=1;align=center;verticalAlign=middle;resizable=0;points=[];fontSize=12;" parent="65cZlFvj0mOp-KRwFTWv-108" vertex="1" connectable="0">
          <mxGeometry x="-0.14" relative="1" as="geometry">
            <mxPoint as="offset" />
          </mxGeometry>
        </mxCell>
        <mxCell id="65cZlFvj0mOp-KRwFTWv-91" value="&lt;span style=&quot;color: rgb(32 , 33 , 36) ; font-family: &amp;#34;menlo&amp;#34; , monospace ; font-size: 11px ; text-align: left ; background-color: rgb(255 , 255 , 255)&quot;&gt;契&lt;br&gt;&lt;/span&gt;" style="rounded=1;whiteSpace=wrap;html=1;fontSize=12;" parent="1" vertex="1">
          <mxGeometry x="391" y="1000" width="80" height="30" as="geometry" />
        </mxCell>
        <mxCell id="65cZlFvj0mOp-KRwFTWv-123" style="edgeStyle=orthogonalEdgeStyle;curved=1;rounded=0;orthogonalLoop=1;jettySize=auto;html=1;entryX=0;entryY=0.5;entryDx=0;entryDy=0;fontSize=12;strokeColor=#FF0000;strokeWidth=2;" parent="1" source="65cZlFvj0mOp-KRwFTWv-93" target="65cZlFvj0mOp-KRwFTWv-122" edge="1">
          <mxGeometry relative="1" as="geometry" />
        </mxCell>
        <mxCell id="65cZlFvj0mOp-KRwFTWv-124" value="禅让" style="edgeLabel;html=1;align=center;verticalAlign=middle;resizable=0;points=[];fontSize=12;" parent="65cZlFvj0mOp-KRwFTWv-123" vertex="1" connectable="0">
          <mxGeometry x="0.1706" y="4" relative="1" as="geometry">
            <mxPoint x="-4" y="-15" as="offset" />
          </mxGeometry>
        </mxCell>
        <mxCell id="65cZlFvj0mOp-KRwFTWv-170" style="edgeStyle=orthogonalEdgeStyle;curved=1;rounded=0;orthogonalLoop=1;jettySize=auto;html=1;fontSize=12;strokeColor=#330000;strokeWidth=1;" parent="1" source="65cZlFvj0mOp-KRwFTWv-93" target="65cZlFvj0mOp-KRwFTWv-169" edge="1">
          <mxGeometry relative="1" as="geometry" />
        </mxCell>
        <mxCell id="65cZlFvj0mOp-KRwFTWv-171" value="生子（长子）" style="edgeLabel;html=1;align=center;verticalAlign=middle;resizable=0;points=[];fontSize=12;" parent="65cZlFvj0mOp-KRwFTWv-170" vertex="1" connectable="0">
          <mxGeometry x="-0.18" y="-2" relative="1" as="geometry">
            <mxPoint as="offset" />
          </mxGeometry>
        </mxCell>
        <mxCell id="hZrphyVDv4pvbZArS3AW-8" style="edgeStyle=orthogonalEdgeStyle;curved=1;rounded=0;orthogonalLoop=1;jettySize=auto;html=1;" parent="1" source="65cZlFvj0mOp-KRwFTWv-93" target="hZrphyVDv4pvbZArS3AW-5" edge="1">
          <mxGeometry relative="1" as="geometry" />
        </mxCell>
        <mxCell id="hZrphyVDv4pvbZArS3AW-14" value="生女" style="edgeLabel;html=1;align=center;verticalAlign=middle;resizable=0;points=[];" parent="hZrphyVDv4pvbZArS3AW-8" vertex="1" connectable="0">
          <mxGeometry x="-0.0111" relative="1" as="geometry">
            <mxPoint as="offset" />
          </mxGeometry>
        </mxCell>
        <mxCell id="65cZlFvj0mOp-KRwFTWv-93" value="&lt;span style=&quot;color: rgb(32 , 33 , 36) ; font-family: &amp;#34;menlo&amp;#34; , monospace ; font-size: 11px ; text-align: left&quot;&gt;放勋（唐尧）&lt;br&gt;&lt;/span&gt;" style="rounded=1;whiteSpace=wrap;html=1;fontSize=12;fillColor=#D5E8D4;strokeColor=#82b366;" parent="1" vertex="1">
          <mxGeometry x="590" y="1000" width="80" height="30" as="geometry" />
        </mxCell>
        <mxCell id="65cZlFvj0mOp-KRwFTWv-112" style="edgeStyle=orthogonalEdgeStyle;curved=1;rounded=0;orthogonalLoop=1;jettySize=auto;html=1;fontSize=12;strokeColor=#FF0000;strokeWidth=2;" parent="1" source="65cZlFvj0mOp-KRwFTWv-94" target="65cZlFvj0mOp-KRwFTWv-93" edge="1">
          <mxGeometry relative="1" as="geometry" />
        </mxCell>
        <mxCell id="65cZlFvj0mOp-KRwFTWv-113" value="禅让" style="edgeLabel;html=1;align=center;verticalAlign=middle;resizable=0;points=[];fontSize=12;" parent="65cZlFvj0mOp-KRwFTWv-112" vertex="1" connectable="0">
          <mxGeometry x="-0.0667" y="-1" relative="1" as="geometry">
            <mxPoint as="offset" />
          </mxGeometry>
        </mxCell>
        <mxCell id="65cZlFvj0mOp-KRwFTWv-94" value="&lt;span style=&quot;color: rgb(32 , 33 , 36) ; font-family: &amp;#34;menlo&amp;#34; , monospace ; font-size: 11px ; text-align: left&quot;&gt;挚&lt;br&gt;&lt;/span&gt;" style="rounded=1;whiteSpace=wrap;html=1;fontSize=12;fillColor=#d5e8d4;strokeColor=#82b366;" parent="1" vertex="1">
          <mxGeometry x="750" y="1000" width="80" height="30" as="geometry" />
        </mxCell>
        <mxCell id="65cZlFvj0mOp-KRwFTWv-97" style="edgeStyle=orthogonalEdgeStyle;curved=1;rounded=0;orthogonalLoop=1;jettySize=auto;html=1;entryX=1;entryY=0.5;entryDx=0;entryDy=0;fontSize=12;" parent="1" source="65cZlFvj0mOp-KRwFTWv-96" target="65cZlFvj0mOp-KRwFTWv-86" edge="1">
          <mxGeometry relative="1" as="geometry" />
        </mxCell>
        <mxCell id="65cZlFvj0mOp-KRwFTWv-98" value="生子" style="edgeLabel;html=1;align=center;verticalAlign=middle;resizable=0;points=[];fontSize=12;" parent="65cZlFvj0mOp-KRwFTWv-97" vertex="1" connectable="0">
          <mxGeometry x="-0.2364" y="1" relative="1" as="geometry">
            <mxPoint as="offset" />
          </mxGeometry>
        </mxCell>
        <mxCell id="65cZlFvj0mOp-KRwFTWv-96" value="&lt;span style=&quot;color: rgb(32 , 33 , 36) ; font-family: &amp;#34;menlo&amp;#34; , monospace ; font-size: 11px ; text-align: left ; background-color: rgb(255 , 255 , 255)&quot;&gt;伊耆侯&lt;/span&gt;&lt;span style=&quot;color: rgb(32 , 33 , 36) ; font-family: &amp;#34;menlo&amp;#34; , monospace ; font-size: 11px ; text-align: left ; background-color: rgb(255 , 255 , 255)&quot;&gt;&lt;br&gt;&lt;/span&gt;" style="rounded=1;whiteSpace=wrap;html=1;fontSize=12;" parent="1" vertex="1">
          <mxGeometry x="650" y="960" width="60" height="30" as="geometry" />
        </mxCell>
        <mxCell id="65cZlFvj0mOp-KRwFTWv-105" value="周" style="rounded=0;whiteSpace=wrap;html=1;fontSize=12;" parent="1" vertex="1">
          <mxGeometry x="316" y="1080" width="50" height="20" as="geometry" />
        </mxCell>
        <mxCell id="65cZlFvj0mOp-KRwFTWv-107" value="殷商" style="rounded=0;whiteSpace=wrap;html=1;fontSize=12;" parent="1" vertex="1">
          <mxGeometry x="406" y="1080" width="50" height="20" as="geometry" />
        </mxCell>
        <mxCell id="65cZlFvj0mOp-KRwFTWv-180" style="edgeStyle=orthogonalEdgeStyle;curved=1;rounded=0;orthogonalLoop=1;jettySize=auto;html=1;fontSize=12;strokeColor=#330000;strokeWidth=1;" parent="1" source="65cZlFvj0mOp-KRwFTWv-122" target="65cZlFvj0mOp-KRwFTWv-176" edge="1">
          <mxGeometry relative="1" as="geometry" />
        </mxCell>
        <mxCell id="hZrphyVDv4pvbZArS3AW-28" style="edgeStyle=orthogonalEdgeStyle;curved=1;rounded=0;orthogonalLoop=1;jettySize=auto;html=1;strokeWidth=2;strokeColor=#FF0000;" parent="1" source="65cZlFvj0mOp-KRwFTWv-122" target="hZrphyVDv4pvbZArS3AW-26" edge="1">
          <mxGeometry relative="1" as="geometry" />
        </mxCell>
        <mxCell id="hZrphyVDv4pvbZArS3AW-58" value="禅让" style="edgeLabel;html=1;align=center;verticalAlign=middle;resizable=0;points=[];fontSize=12;" parent="hZrphyVDv4pvbZArS3AW-28" vertex="1" connectable="0">
          <mxGeometry x="-0.1614" y="-46" relative="1" as="geometry">
            <mxPoint as="offset" />
          </mxGeometry>
        </mxCell>
        <mxCell id="65cZlFvj0mOp-KRwFTWv-122" value="&lt;span style=&quot;color: rgb(32, 33, 36); font-family: menlo, monospace; font-size: 12px; text-align: left;&quot;&gt;虞舜（&lt;/span&gt;&lt;span style=&quot;color: rgb(51, 51, 51); font-family: &amp;quot;PingFang SC&amp;quot;, &amp;quot;Lantinghei SC&amp;quot;, &amp;quot;Microsoft YaHei&amp;quot;, arial, 宋体, sans-serif, tahoma; font-size: 12px; text-align: start;&quot;&gt;重华）&lt;/span&gt;&lt;span style=&quot;color: rgb(32, 33, 36); font-family: menlo, monospace; font-size: 12px; text-align: left;&quot;&gt;&lt;br style=&quot;font-size: 12px;&quot;&gt;&lt;/span&gt;" style="rounded=1;whiteSpace=wrap;html=1;fontSize=12;fillColor=#D5E8D4;strokeColor=#82b366;" parent="1" vertex="1">
          <mxGeometry x="750" y="1090" width="80" height="30" as="geometry" />
        </mxCell>
        <mxCell id="65cZlFvj0mOp-KRwFTWv-133" style="edgeStyle=orthogonalEdgeStyle;curved=1;rounded=0;orthogonalLoop=1;jettySize=auto;html=1;fontSize=12;strokeColor=#330000;strokeWidth=1;" parent="1" source="65cZlFvj0mOp-KRwFTWv-125" target="65cZlFvj0mOp-KRwFTWv-132" edge="1">
          <mxGeometry relative="1" as="geometry" />
        </mxCell>
        <mxCell id="65cZlFvj0mOp-KRwFTWv-134" value="流放" style="edgeLabel;html=1;align=center;verticalAlign=middle;resizable=0;points=[];fontSize=11;" parent="65cZlFvj0mOp-KRwFTWv-133" vertex="1" connectable="0">
          <mxGeometry x="-0.0667" y="1" relative="1" as="geometry">
            <mxPoint as="offset" />
          </mxGeometry>
        </mxCell>
        <mxCell id="65cZlFvj0mOp-KRwFTWv-138" style="edgeStyle=orthogonalEdgeStyle;curved=1;rounded=0;orthogonalLoop=1;jettySize=auto;html=1;fontSize=11;strokeColor=#330000;strokeWidth=1;" parent="1" source="65cZlFvj0mOp-KRwFTWv-125" target="65cZlFvj0mOp-KRwFTWv-129" edge="1">
          <mxGeometry relative="1" as="geometry" />
        </mxCell>
        <mxCell id="65cZlFvj0mOp-KRwFTWv-139" value="不和" style="edgeLabel;html=1;align=center;verticalAlign=middle;resizable=0;points=[];fontSize=11;" parent="65cZlFvj0mOp-KRwFTWv-138" vertex="1" connectable="0">
          <mxGeometry x="-0.0111" relative="1" as="geometry">
            <mxPoint as="offset" />
          </mxGeometry>
        </mxCell>
        <mxCell id="65cZlFvj0mOp-KRwFTWv-125" value="&lt;span style=&quot;color: rgb(25, 25, 25); font-size: 11px; text-align: left; background-color: rgb(255, 255, 255);&quot;&gt;阏伯&lt;/span&gt;&lt;span style=&quot;color: rgb(32 , 33 , 36) ; font-family: &amp;quot;menlo&amp;quot; , monospace ; font-size: 11px ; text-align: left ; background-color: rgb(255 , 255 , 255)&quot;&gt;&lt;br style=&quot;font-size: 11px;&quot;&gt;&lt;/span&gt;" style="rounded=1;whiteSpace=wrap;html=1;fontSize=11;" parent="1" vertex="1">
          <mxGeometry x="350" y="580" width="60" height="30" as="geometry" />
        </mxCell>
        <mxCell id="65cZlFvj0mOp-KRwFTWv-136" style="edgeStyle=orthogonalEdgeStyle;curved=1;rounded=0;orthogonalLoop=1;jettySize=auto;html=1;fontSize=11;strokeColor=#330000;strokeWidth=1;" parent="1" source="65cZlFvj0mOp-KRwFTWv-129" target="65cZlFvj0mOp-KRwFTWv-135" edge="1">
          <mxGeometry relative="1" as="geometry" />
        </mxCell>
        <mxCell id="65cZlFvj0mOp-KRwFTWv-137" value="流放" style="edgeLabel;html=1;align=center;verticalAlign=middle;resizable=0;points=[];fontSize=11;" parent="65cZlFvj0mOp-KRwFTWv-136" vertex="1" connectable="0">
          <mxGeometry x="-0.2" y="-1" relative="1" as="geometry">
            <mxPoint x="-6" y="1" as="offset" />
          </mxGeometry>
        </mxCell>
        <mxCell id="65cZlFvj0mOp-KRwFTWv-129" value="&lt;span style=&quot;color: rgb(51, 51, 51); font-family: &amp;quot;helvetica neue&amp;quot;, helvetica, arial, &amp;quot;pingfang sc&amp;quot;, &amp;quot;hiragino sans gb&amp;quot;, &amp;quot;microsoft yahei&amp;quot;, &amp;quot;wenquanyi micro hei&amp;quot;, sans-serif; font-size: 12px; text-indent: 28px; background-color: rgb(255, 255, 255);&quot;&gt;实沈&lt;/span&gt;&lt;span style=&quot;color: rgb(32, 33, 36); font-family: menlo, monospace; font-size: 12px; text-align: left; background-color: rgb(255, 255, 255);&quot;&gt;&lt;br style=&quot;font-size: 12px;&quot;&gt;&lt;/span&gt;" style="rounded=1;whiteSpace=wrap;html=1;fontSize=12;" parent="1" vertex="1">
          <mxGeometry x="350" y="700" width="60" height="30" as="geometry" />
        </mxCell>
        <mxCell id="65cZlFvj0mOp-KRwFTWv-132" value="&lt;span style=&quot;color: rgb(25, 25, 25); font-size: 11px; text-align: left; background-color: rgb(255, 255, 255);&quot;&gt;商星（商丘）&lt;/span&gt;" style="rounded=0;whiteSpace=wrap;html=1;fontSize=11;" parent="1" vertex="1">
          <mxGeometry x="210" y="585" width="80" height="20" as="geometry" />
        </mxCell>
        <mxCell id="65cZlFvj0mOp-KRwFTWv-135" value="&lt;span style=&quot;color: rgb(25 , 25 , 25) ; font-size: 11px ; text-align: left ; background-color: rgb(255 , 255 , 255)&quot;&gt;参星（大夏）&lt;/span&gt;" style="rounded=0;whiteSpace=wrap;html=1;fontSize=11;" parent="1" vertex="1">
          <mxGeometry x="210" y="705" width="80" height="20" as="geometry" />
        </mxCell>
        <mxCell id="hZrphyVDv4pvbZArS3AW-47" style="edgeStyle=orthogonalEdgeStyle;curved=1;rounded=0;orthogonalLoop=1;jettySize=auto;html=1;fontSize=12;" parent="1" source="65cZlFvj0mOp-KRwFTWv-142" target="hZrphyVDv4pvbZArS3AW-42" edge="1">
          <mxGeometry relative="1" as="geometry" />
        </mxCell>
        <mxCell id="hZrphyVDv4pvbZArS3AW-53" value="发明" style="edgeLabel;html=1;align=center;verticalAlign=middle;resizable=0;points=[];fontSize=12;" parent="hZrphyVDv4pvbZArS3AW-47" vertex="1" connectable="0">
          <mxGeometry x="-0.25" relative="1" as="geometry">
            <mxPoint as="offset" />
          </mxGeometry>
        </mxCell>
        <mxCell id="65cZlFvj0mOp-KRwFTWv-142" value="&lt;span style=&quot;color: rgb(25 , 25 , 25) ; font-size: 11px ; text-align: left ; background-color: rgb(255 , 255 , 255)&quot;&gt;女节&lt;br&gt;&lt;/span&gt;&lt;span style=&quot;color: rgb(32 , 33 , 36) ; font-family: &amp;#34;menlo&amp;#34; , monospace ; font-size: 11px ; text-align: left ; background-color: rgb(255 , 255 , 255)&quot;&gt;方雷氏&lt;br style=&quot;font-size: 11px&quot;&gt;&lt;/span&gt;" style="rounded=1;whiteSpace=wrap;html=1;fontSize=11;" parent="1" vertex="1">
          <mxGeometry x="760" y="340" width="60" height="30" as="geometry" />
        </mxCell>
        <mxCell id="65cZlFvj0mOp-KRwFTWv-156" style="edgeStyle=orthogonalEdgeStyle;curved=1;rounded=0;orthogonalLoop=1;jettySize=auto;html=1;fontSize=12;strokeColor=#330000;strokeWidth=1;" parent="1" source="65cZlFvj0mOp-KRwFTWv-147" target="65cZlFvj0mOp-KRwFTWv-150" edge="1">
          <mxGeometry relative="1" as="geometry" />
        </mxCell>
        <mxCell id="65cZlFvj0mOp-KRwFTWv-157" value="三妃" style="edgeLabel;html=1;align=center;verticalAlign=middle;resizable=0;points=[];fontSize=12;" parent="65cZlFvj0mOp-KRwFTWv-156" vertex="1" connectable="0">
          <mxGeometry x="0.0204" y="-9" relative="1" as="geometry">
            <mxPoint as="offset" />
          </mxGeometry>
        </mxCell>
        <mxCell id="hZrphyVDv4pvbZArS3AW-45" style="edgeStyle=orthogonalEdgeStyle;curved=1;rounded=0;orthogonalLoop=1;jettySize=auto;html=1;entryX=0.5;entryY=0;entryDx=0;entryDy=0;fontSize=12;" parent="1" source="65cZlFvj0mOp-KRwFTWv-147" target="65cZlFvj0mOp-KRwFTWv-52" edge="1">
          <mxGeometry relative="1" as="geometry" />
        </mxCell>
        <mxCell id="hZrphyVDv4pvbZArS3AW-46" value="正妃" style="edgeLabel;html=1;align=center;verticalAlign=middle;resizable=0;points=[];fontSize=12;" parent="hZrphyVDv4pvbZArS3AW-45" vertex="1" connectable="0">
          <mxGeometry x="-0.1278" y="11" relative="1" as="geometry">
            <mxPoint x="1" y="1" as="offset" />
          </mxGeometry>
        </mxCell>
        <mxCell id="hZrphyVDv4pvbZArS3AW-49" style="edgeStyle=orthogonalEdgeStyle;curved=1;rounded=0;orthogonalLoop=1;jettySize=auto;html=1;entryX=0.667;entryY=0.333;entryDx=0;entryDy=0;entryPerimeter=0;fontSize=12;" parent="1" source="65cZlFvj0mOp-KRwFTWv-147" target="65cZlFvj0mOp-KRwFTWv-153" edge="1">
          <mxGeometry relative="1" as="geometry" />
        </mxCell>
        <mxCell id="hZrphyVDv4pvbZArS3AW-50" value="四妃" style="edgeLabel;html=1;align=center;verticalAlign=middle;resizable=0;points=[];fontSize=12;" parent="hZrphyVDv4pvbZArS3AW-49" vertex="1" connectable="0">
          <mxGeometry x="0.1026" y="8" relative="1" as="geometry">
            <mxPoint as="offset" />
          </mxGeometry>
        </mxCell>
        <mxCell id="65cZlFvj0mOp-KRwFTWv-147" value="妻子" style="ellipse;whiteSpace=wrap;html=1;aspect=fixed;fontSize=12;" parent="1" vertex="1">
          <mxGeometry x="850" y="265" width="50" height="50" as="geometry" />
        </mxCell>
        <mxCell id="hZrphyVDv4pvbZArS3AW-48" style="edgeStyle=orthogonalEdgeStyle;curved=1;rounded=0;orthogonalLoop=1;jettySize=auto;html=1;fontSize=12;" parent="1" source="65cZlFvj0mOp-KRwFTWv-150" target="hZrphyVDv4pvbZArS3AW-39" edge="1">
          <mxGeometry relative="1" as="geometry" />
        </mxCell>
        <mxCell id="hZrphyVDv4pvbZArS3AW-52" value="始祖" style="edgeLabel;html=1;align=center;verticalAlign=middle;resizable=0;points=[];fontSize=12;" parent="hZrphyVDv4pvbZArS3AW-48" vertex="1" connectable="0">
          <mxGeometry x="-0.25" y="1" relative="1" as="geometry">
            <mxPoint as="offset" />
          </mxGeometry>
        </mxCell>
        <mxCell id="65cZlFvj0mOp-KRwFTWv-150" value="&lt;span style=&quot;color: rgb(51 , 51 , 51) ; font-size: 12px ; background-color: rgb(255 , 255 , 255)&quot;&gt;彤鱼氏&lt;/span&gt;&lt;span style=&quot;color: rgb(32 , 33 , 36) ; font-family: &amp;#34;menlo&amp;#34; , monospace ; font-size: 12px ; text-align: left ; background-color: rgb(255 , 255 , 255)&quot;&gt;&lt;br style=&quot;font-size: 12px&quot;&gt;&lt;/span&gt;" style="rounded=1;whiteSpace=wrap;html=1;fontSize=12;" parent="1" vertex="1">
          <mxGeometry x="650" y="340" width="60" height="30" as="geometry" />
        </mxCell>
        <mxCell id="hZrphyVDv4pvbZArS3AW-41" style="edgeStyle=orthogonalEdgeStyle;curved=1;rounded=0;orthogonalLoop=1;jettySize=auto;html=1;fontSize=12;" parent="1" source="65cZlFvj0mOp-KRwFTWv-153" target="hZrphyVDv4pvbZArS3AW-40" edge="1">
          <mxGeometry relative="1" as="geometry" />
        </mxCell>
        <mxCell id="hZrphyVDv4pvbZArS3AW-51" value="发明" style="edgeLabel;html=1;align=center;verticalAlign=middle;resizable=0;points=[];fontSize=12;" parent="hZrphyVDv4pvbZArS3AW-41" vertex="1" connectable="0">
          <mxGeometry x="-0.05" y="3" relative="1" as="geometry">
            <mxPoint as="offset" />
          </mxGeometry>
        </mxCell>
        <mxCell id="65cZlFvj0mOp-KRwFTWv-153" value="&lt;span style=&quot;text-align: left ; background-color: rgb(255 , 255 , 255)&quot;&gt;&lt;font color=&quot;#191919&quot; face=&quot;menlo, monospace&quot;&gt;嫫母&lt;/font&gt;&lt;br style=&quot;font-size: 12px&quot;&gt;&lt;/span&gt;" style="rounded=1;whiteSpace=wrap;html=1;fontSize=12;" parent="1" vertex="1">
          <mxGeometry x="480" y="340" width="60" height="30" as="geometry" />
        </mxCell>
        <mxCell id="65cZlFvj0mOp-KRwFTWv-160" style="edgeStyle=orthogonalEdgeStyle;curved=1;rounded=0;orthogonalLoop=1;jettySize=auto;html=1;fontSize=12;strokeColor=#330000;strokeWidth=1;" parent="1" source="65cZlFvj0mOp-KRwFTWv-158" target="65cZlFvj0mOp-KRwFTWv-68" edge="1">
          <mxGeometry relative="1" as="geometry" />
        </mxCell>
        <mxCell id="65cZlFvj0mOp-KRwFTWv-162" value="生子" style="edgeLabel;html=1;align=center;verticalAlign=middle;resizable=0;points=[];fontSize=12;" parent="65cZlFvj0mOp-KRwFTWv-160" vertex="1" connectable="0">
          <mxGeometry x="-0.04" relative="1" as="geometry">
            <mxPoint as="offset" />
          </mxGeometry>
        </mxCell>
        <mxCell id="65cZlFvj0mOp-KRwFTWv-158" value="&lt;span style=&quot;color: rgb(51 , 51 , 51) ; font-family: &amp;#34;helvetica neue&amp;#34; , &amp;#34;helvetica&amp;#34; , &amp;#34;arial&amp;#34; , &amp;#34;pingfang sc&amp;#34; , &amp;#34;hiragino sans gb&amp;#34; , &amp;#34;microsoft yahei&amp;#34; , &amp;#34;wenquanyi micro hei&amp;#34; , sans-serif ; background-color: rgb(255 , 255 , 255)&quot;&gt;蟜极&lt;/span&gt;" style="rounded=1;whiteSpace=wrap;html=1;fontSize=12;" parent="1" vertex="1">
          <mxGeometry x="530" y="570" width="80" height="30" as="geometry" />
        </mxCell>
        <mxCell id="65cZlFvj0mOp-KRwFTWv-166" style="edgeStyle=orthogonalEdgeStyle;curved=1;rounded=0;orthogonalLoop=1;jettySize=auto;html=1;fontSize=12;strokeColor=#330000;strokeWidth=1;" parent="1" source="65cZlFvj0mOp-KRwFTWv-163" target="65cZlFvj0mOp-KRwFTWv-164" edge="1">
          <mxGeometry relative="1" as="geometry" />
        </mxCell>
        <mxCell id="65cZlFvj0mOp-KRwFTWv-167" value="生子" style="edgeLabel;html=1;align=center;verticalAlign=middle;resizable=0;points=[];fontSize=12;" parent="65cZlFvj0mOp-KRwFTWv-166" vertex="1" connectable="0">
          <mxGeometry x="-0.0444" y="-1" relative="1" as="geometry">
            <mxPoint as="offset" />
          </mxGeometry>
        </mxCell>
        <mxCell id="65cZlFvj0mOp-KRwFTWv-163" value="龙苗" style="rounded=1;whiteSpace=wrap;html=1;fontSize=12;" parent="1" vertex="1">
          <mxGeometry x="675" y="530" width="60" height="30" as="geometry" />
        </mxCell>
        <mxCell id="65cZlFvj0mOp-KRwFTWv-164" value="吾融" style="rounded=1;whiteSpace=wrap;html=1;fontSize=12;" parent="1" vertex="1">
          <mxGeometry x="675" y="600" width="60" height="30" as="geometry" />
        </mxCell>
        <mxCell id="hZrphyVDv4pvbZArS3AW-21" style="edgeStyle=orthogonalEdgeStyle;curved=1;rounded=0;orthogonalLoop=1;jettySize=auto;html=1;entryX=0;entryY=0.5;entryDx=0;entryDy=0;exitX=0.5;exitY=1;exitDx=0;exitDy=0;" parent="1" source="65cZlFvj0mOp-KRwFTWv-169" target="hZrphyVDv4pvbZArS3AW-15" edge="1">
          <mxGeometry relative="1" as="geometry" />
        </mxCell>
        <mxCell id="hZrphyVDv4pvbZArS3AW-22" value="舅舅" style="edgeLabel;html=1;align=center;verticalAlign=middle;resizable=0;points=[];" parent="hZrphyVDv4pvbZArS3AW-21" vertex="1" connectable="0">
          <mxGeometry x="-0.3608" y="6" relative="1" as="geometry">
            <mxPoint as="offset" />
          </mxGeometry>
        </mxCell>
        <mxCell id="65cZlFvj0mOp-KRwFTWv-169" value="&lt;span style=&quot;color: rgb(32 , 33 , 36) ; font-family: &amp;#34;menlo&amp;#34; , monospace ; font-size: 11px ; text-align: left ; background-color: rgb(255 , 255 , 255)&quot;&gt;朱丹&lt;br&gt;&lt;/span&gt;" style="rounded=1;whiteSpace=wrap;html=1;fontSize=12;" parent="1" vertex="1">
          <mxGeometry x="510" y="1139" width="80" height="30" as="geometry" />
        </mxCell>
        <mxCell id="hZrphyVDv4pvbZArS3AW-66" style="edgeStyle=orthogonalEdgeStyle;rounded=0;orthogonalLoop=1;jettySize=auto;html=1;fontSize=12;fontColor=#330000;strokeColor=#330000;strokeWidth=1;" parent="1" source="65cZlFvj0mOp-KRwFTWv-172" target="hZrphyVDv4pvbZArS3AW-64" edge="1">
          <mxGeometry relative="1" as="geometry" />
        </mxCell>
        <mxCell id="hZrphyVDv4pvbZArS3AW-71" style="edgeStyle=orthogonalEdgeStyle;rounded=0;orthogonalLoop=1;jettySize=auto;html=1;fontSize=12;fontColor=#330000;strokeColor=#330000;strokeWidth=1;curved=1;" parent="1" source="65cZlFvj0mOp-KRwFTWv-172" target="hZrphyVDv4pvbZArS3AW-70" edge="1">
          <mxGeometry relative="1" as="geometry" />
        </mxCell>
        <mxCell id="hZrphyVDv4pvbZArS3AW-72" value="生子" style="edgeLabel;html=1;align=center;verticalAlign=middle;resizable=0;points=[];fontSize=12;fontColor=#330000;" parent="hZrphyVDv4pvbZArS3AW-71" vertex="1" connectable="0">
          <mxGeometry x="0.2903" y="13" relative="1" as="geometry">
            <mxPoint as="offset" />
          </mxGeometry>
        </mxCell>
        <mxCell id="hZrphyVDv4pvbZArS3AW-74" style="edgeStyle=orthogonalEdgeStyle;curved=1;rounded=0;orthogonalLoop=1;jettySize=auto;html=1;fontSize=12;fontColor=#330000;strokeColor=#330000;strokeWidth=1;" parent="1" source="65cZlFvj0mOp-KRwFTWv-172" target="hZrphyVDv4pvbZArS3AW-73" edge="1">
          <mxGeometry relative="1" as="geometry" />
        </mxCell>
        <mxCell id="hZrphyVDv4pvbZArS3AW-75" value="撞塌" style="edgeLabel;html=1;align=center;verticalAlign=middle;resizable=0;points=[];fontSize=12;fontColor=#330000;" parent="hZrphyVDv4pvbZArS3AW-74" vertex="1" connectable="0">
          <mxGeometry x="-0.1063" y="-21" relative="1" as="geometry">
            <mxPoint x="1" as="offset" />
          </mxGeometry>
        </mxCell>
        <mxCell id="65cZlFvj0mOp-KRwFTWv-172" value="&lt;span style=&quot;color: rgb(32 , 33 , 36) ; font-family: &amp;quot;menlo&amp;quot; , monospace ; font-size: 11px ; text-align: left ; background-color: rgb(255 , 255 , 255)&quot;&gt;共工（水神）&lt;br&gt;&lt;/span&gt;" style="rounded=1;whiteSpace=wrap;html=1;fontSize=12;" parent="1" vertex="1">
          <mxGeometry x="1160" y="640" width="80" height="30" as="geometry" />
        </mxCell>
        <mxCell id="hZrphyVDv4pvbZArS3AW-2" style="edgeStyle=orthogonalEdgeStyle;rounded=0;orthogonalLoop=1;jettySize=auto;html=1;" parent="1" source="65cZlFvj0mOp-KRwFTWv-176" target="65cZlFvj0mOp-KRwFTWv-181" edge="1">
          <mxGeometry relative="1" as="geometry">
            <Array as="points">
              <mxPoint x="695" y="1280" />
              <mxPoint x="615" y="1280" />
            </Array>
          </mxGeometry>
        </mxCell>
        <mxCell id="hZrphyVDv4pvbZArS3AW-3" style="edgeStyle=orthogonalEdgeStyle;rounded=0;orthogonalLoop=1;jettySize=auto;html=1;" parent="1" source="65cZlFvj0mOp-KRwFTWv-176" target="65cZlFvj0mOp-KRwFTWv-182" edge="1">
          <mxGeometry relative="1" as="geometry" />
        </mxCell>
        <mxCell id="65cZlFvj0mOp-KRwFTWv-176" value="妻子" style="ellipse;whiteSpace=wrap;html=1;aspect=fixed;fontSize=12;" parent="1" vertex="1">
          <mxGeometry x="670" y="1210" width="50" height="50" as="geometry" />
        </mxCell>
        <mxCell id="hZrphyVDv4pvbZArS3AW-23" style="edgeStyle=orthogonalEdgeStyle;curved=1;rounded=0;orthogonalLoop=1;jettySize=auto;html=1;" parent="1" source="65cZlFvj0mOp-KRwFTWv-181" target="65cZlFvj0mOp-KRwFTWv-182" edge="1">
          <mxGeometry relative="1" as="geometry" />
        </mxCell>
        <mxCell id="hZrphyVDv4pvbZArS3AW-24" value="姐姐" style="edgeLabel;html=1;align=center;verticalAlign=middle;resizable=0;points=[];" parent="hZrphyVDv4pvbZArS3AW-23" vertex="1" connectable="0">
          <mxGeometry x="-0.1692" relative="1" as="geometry">
            <mxPoint x="-2" as="offset" />
          </mxGeometry>
        </mxCell>
        <mxCell id="65cZlFvj0mOp-KRwFTWv-181" value="&lt;span style=&quot;color: rgb(32 , 33 , 36) ; font-family: &amp;#34;menlo&amp;#34; , monospace ; font-size: 11px ; text-align: left ; background-color: rgb(255 , 255 , 255)&quot;&gt;娥皇&lt;br&gt;&lt;/span&gt;" style="rounded=1;whiteSpace=wrap;html=1;fontSize=12;" parent="1" vertex="1">
          <mxGeometry x="575" y="1300" width="80" height="30" as="geometry" />
        </mxCell>
        <mxCell id="hZrphyVDv4pvbZArS3AW-19" style="edgeStyle=orthogonalEdgeStyle;curved=1;rounded=0;orthogonalLoop=1;jettySize=auto;html=1;" parent="1" source="65cZlFvj0mOp-KRwFTWv-182" target="hZrphyVDv4pvbZArS3AW-15" edge="1">
          <mxGeometry relative="1" as="geometry" />
        </mxCell>
        <mxCell id="hZrphyVDv4pvbZArS3AW-20" value="生子" style="edgeLabel;html=1;align=center;verticalAlign=middle;resizable=0;points=[];" parent="hZrphyVDv4pvbZArS3AW-19" vertex="1" connectable="0">
          <mxGeometry x="0.296" y="9" relative="1" as="geometry">
            <mxPoint as="offset" />
          </mxGeometry>
        </mxCell>
        <mxCell id="65cZlFvj0mOp-KRwFTWv-182" value="&lt;span style=&quot;color: rgb(32 , 33 , 36) ; font-family: &amp;#34;menlo&amp;#34; , monospace ; font-size: 11px ; text-align: left ; background-color: rgb(255 , 255 , 255)&quot;&gt;女英&lt;br&gt;&lt;/span&gt;" style="rounded=1;whiteSpace=wrap;html=1;fontSize=12;" parent="1" vertex="1">
          <mxGeometry x="720" y="1300" width="80" height="30" as="geometry" />
        </mxCell>
        <mxCell id="65cZlFvj0mOp-KRwFTWv-186" style="edgeStyle=orthogonalEdgeStyle;curved=1;rounded=0;orthogonalLoop=1;jettySize=auto;html=1;entryX=0.5;entryY=1;entryDx=0;entryDy=0;fontSize=12;strokeColor=#330000;strokeWidth=1;" parent="1" source="65cZlFvj0mOp-KRwFTWv-185" target="65cZlFvj0mOp-KRwFTWv-122" edge="1">
          <mxGeometry relative="1" as="geometry" />
        </mxCell>
        <mxCell id="65cZlFvj0mOp-KRwFTWv-187" value="生子" style="edgeLabel;html=1;align=center;verticalAlign=middle;resizable=0;points=[];fontSize=12;" parent="65cZlFvj0mOp-KRwFTWv-186" vertex="1" connectable="0">
          <mxGeometry x="0.05" y="-6" relative="1" as="geometry">
            <mxPoint x="15" as="offset" />
          </mxGeometry>
        </mxCell>
        <mxCell id="65cZlFvj0mOp-KRwFTWv-201" style="edgeStyle=orthogonalEdgeStyle;curved=1;rounded=0;orthogonalLoop=1;jettySize=auto;html=1;fontSize=12;strokeColor=#330000;strokeWidth=1;" parent="1" source="65cZlFvj0mOp-KRwFTWv-185" target="65cZlFvj0mOp-KRwFTWv-200" edge="1">
          <mxGeometry relative="1" as="geometry" />
        </mxCell>
        <mxCell id="65cZlFvj0mOp-KRwFTWv-202" value="生子" style="edgeLabel;html=1;align=center;verticalAlign=middle;resizable=0;points=[];fontSize=12;" parent="65cZlFvj0mOp-KRwFTWv-201" vertex="1" connectable="0">
          <mxGeometry x="-0.3" y="1" relative="1" as="geometry">
            <mxPoint as="offset" />
          </mxGeometry>
        </mxCell>
        <mxCell id="65cZlFvj0mOp-KRwFTWv-185" value="瞽叟 gu sou" style="rounded=1;whiteSpace=wrap;html=1;fontSize=12;" parent="1" vertex="1">
          <mxGeometry x="870" y="1130" width="80" height="30" as="geometry" />
        </mxCell>
        <mxCell id="65cZlFvj0mOp-KRwFTWv-191" style="edgeStyle=orthogonalEdgeStyle;curved=1;rounded=0;orthogonalLoop=1;jettySize=auto;html=1;fontSize=12;strokeColor=#330000;strokeWidth=1;" parent="1" source="65cZlFvj0mOp-KRwFTWv-188" target="65cZlFvj0mOp-KRwFTWv-190" edge="1">
          <mxGeometry relative="1" as="geometry" />
        </mxCell>
        <mxCell id="65cZlFvj0mOp-KRwFTWv-195" value="生子" style="edgeLabel;html=1;align=center;verticalAlign=middle;resizable=0;points=[];fontSize=12;" parent="65cZlFvj0mOp-KRwFTWv-191" vertex="1" connectable="0">
          <mxGeometry x="-0.12" y="-2" relative="1" as="geometry">
            <mxPoint x="-2" y="-2" as="offset" />
          </mxGeometry>
        </mxCell>
        <mxCell id="65cZlFvj0mOp-KRwFTWv-188" value="敬康" style="rounded=1;whiteSpace=wrap;html=1;fontSize=12;" parent="1" vertex="1">
          <mxGeometry x="880" y="850" width="60" height="30" as="geometry" />
        </mxCell>
        <mxCell id="65cZlFvj0mOp-KRwFTWv-193" style="edgeStyle=orthogonalEdgeStyle;curved=1;rounded=0;orthogonalLoop=1;jettySize=auto;html=1;fontSize=12;strokeColor=#330000;strokeWidth=1;" parent="1" source="65cZlFvj0mOp-KRwFTWv-190" target="65cZlFvj0mOp-KRwFTWv-192" edge="1">
          <mxGeometry relative="1" as="geometry">
            <mxPoint x="1130" y="835" as="targetPoint" />
          </mxGeometry>
        </mxCell>
        <mxCell id="65cZlFvj0mOp-KRwFTWv-196" value="生子" style="edgeLabel;html=1;align=center;verticalAlign=middle;resizable=0;points=[];fontSize=12;" parent="65cZlFvj0mOp-KRwFTWv-193" vertex="1" connectable="0">
          <mxGeometry x="-0.15" relative="1" as="geometry">
            <mxPoint as="offset" />
          </mxGeometry>
        </mxCell>
        <mxCell id="65cZlFvj0mOp-KRwFTWv-190" value="句望" style="rounded=1;whiteSpace=wrap;html=1;fontSize=12;" parent="1" vertex="1">
          <mxGeometry x="880" y="930" width="60" height="30" as="geometry" />
        </mxCell>
        <mxCell id="65cZlFvj0mOp-KRwFTWv-199" style="edgeStyle=orthogonalEdgeStyle;curved=1;rounded=0;orthogonalLoop=1;jettySize=auto;html=1;fontSize=12;strokeColor=#330000;strokeWidth=1;" parent="1" source="65cZlFvj0mOp-KRwFTWv-192" target="65cZlFvj0mOp-KRwFTWv-185" edge="1">
          <mxGeometry relative="1" as="geometry" />
        </mxCell>
        <mxCell id="hZrphyVDv4pvbZArS3AW-9" value="生子" style="edgeLabel;html=1;align=center;verticalAlign=middle;resizable=0;points=[];" parent="65cZlFvj0mOp-KRwFTWv-199" vertex="1" connectable="0">
          <mxGeometry x="-0.06" y="1" relative="1" as="geometry">
            <mxPoint as="offset" />
          </mxGeometry>
        </mxCell>
        <mxCell id="65cZlFvj0mOp-KRwFTWv-192" value="桥牛" style="rounded=1;whiteSpace=wrap;html=1;fontSize=12;" parent="1" vertex="1">
          <mxGeometry x="880" y="1000" width="60" height="30" as="geometry" />
        </mxCell>
        <mxCell id="65cZlFvj0mOp-KRwFTWv-203" style="edgeStyle=orthogonalEdgeStyle;curved=1;rounded=0;orthogonalLoop=1;jettySize=auto;html=1;fontSize=12;strokeColor=#330000;strokeWidth=1;" parent="1" source="65cZlFvj0mOp-KRwFTWv-200" target="65cZlFvj0mOp-KRwFTWv-122" edge="1">
          <mxGeometry relative="1" as="geometry" />
        </mxCell>
        <mxCell id="65cZlFvj0mOp-KRwFTWv-204" value="同父异母兄弟" style="edgeLabel;html=1;align=center;verticalAlign=middle;resizable=0;points=[];fontSize=12;" parent="65cZlFvj0mOp-KRwFTWv-203" vertex="1" connectable="0">
          <mxGeometry x="0.2378" y="-13" relative="1" as="geometry">
            <mxPoint as="offset" />
          </mxGeometry>
        </mxCell>
        <mxCell id="65cZlFvj0mOp-KRwFTWv-200" value="&lt;span style=&quot;color: rgb(32 , 33 , 36) ; font-family: &amp;#34;menlo&amp;#34; , monospace ; font-size: 11px ; text-align: left&quot;&gt;象&lt;br&gt;&lt;/span&gt;" style="rounded=1;whiteSpace=wrap;html=1;fontSize=12;" parent="1" vertex="1">
          <mxGeometry x="870" y="1210" width="80" height="30" as="geometry" />
        </mxCell>
        <mxCell id="hZrphyVDv4pvbZArS3AW-6" style="edgeStyle=orthogonalEdgeStyle;rounded=0;orthogonalLoop=1;jettySize=auto;html=1;" parent="1" source="hZrphyVDv4pvbZArS3AW-5" target="65cZlFvj0mOp-KRwFTWv-181" edge="1">
          <mxGeometry relative="1" as="geometry" />
        </mxCell>
        <mxCell id="hZrphyVDv4pvbZArS3AW-7" style="edgeStyle=orthogonalEdgeStyle;rounded=0;orthogonalLoop=1;jettySize=auto;html=1;" parent="1" source="hZrphyVDv4pvbZArS3AW-5" target="65cZlFvj0mOp-KRwFTWv-182" edge="1">
          <mxGeometry relative="1" as="geometry">
            <Array as="points">
              <mxPoint x="630" y="1280" />
              <mxPoint x="760" y="1280" />
            </Array>
          </mxGeometry>
        </mxCell>
        <mxCell id="hZrphyVDv4pvbZArS3AW-5" value="女儿" style="ellipse;whiteSpace=wrap;html=1;aspect=fixed;fontSize=12;" parent="1" vertex="1">
          <mxGeometry x="605" y="1210" width="50" height="50" as="geometry" />
        </mxCell>
        <mxCell id="hZrphyVDv4pvbZArS3AW-29" style="edgeStyle=orthogonalEdgeStyle;curved=1;rounded=0;orthogonalLoop=1;jettySize=auto;html=1;entryX=0;entryY=0.5;entryDx=0;entryDy=0;" parent="1" source="hZrphyVDv4pvbZArS3AW-15" target="hZrphyVDv4pvbZArS3AW-26" edge="1">
          <mxGeometry relative="1" as="geometry" />
        </mxCell>
        <mxCell id="hZrphyVDv4pvbZArS3AW-30" value="朋友" style="edgeLabel;html=1;align=center;verticalAlign=middle;resizable=0;points=[];" parent="hZrphyVDv4pvbZArS3AW-29" vertex="1" connectable="0">
          <mxGeometry x="0.0049" y="-3" relative="1" as="geometry">
            <mxPoint as="offset" />
          </mxGeometry>
        </mxCell>
        <mxCell id="hZrphyVDv4pvbZArS3AW-31" style="edgeStyle=orthogonalEdgeStyle;curved=1;rounded=0;orthogonalLoop=1;jettySize=auto;html=1;" parent="1" source="hZrphyVDv4pvbZArS3AW-15" target="hZrphyVDv4pvbZArS3AW-25" edge="1">
          <mxGeometry relative="1" as="geometry" />
        </mxCell>
        <mxCell id="hZrphyVDv4pvbZArS3AW-32" value="朋友" style="edgeLabel;html=1;align=center;verticalAlign=middle;resizable=0;points=[];" parent="hZrphyVDv4pvbZArS3AW-31" vertex="1" connectable="0">
          <mxGeometry x="-0.0791" y="-10" relative="1" as="geometry">
            <mxPoint as="offset" />
          </mxGeometry>
        </mxCell>
        <mxCell id="hZrphyVDv4pvbZArS3AW-15" value="&lt;span style=&quot;color: rgb(32 , 33 , 36) ; font-family: &amp;quot;menlo&amp;quot; , monospace ; font-size: 11px ; text-align: left ; background-color: rgb(255 , 255 , 255)&quot;&gt;商均&lt;br&gt;&lt;/span&gt;" style="rounded=1;whiteSpace=wrap;html=1;fontSize=12;" parent="1" vertex="1">
          <mxGeometry x="630" y="1390" width="80" height="30" as="geometry" />
        </mxCell>
        <mxCell id="hZrphyVDv4pvbZArS3AW-25" value="&lt;span style=&quot;color: rgb(32 , 33 , 36) ; font-family: &amp;quot;menlo&amp;quot; , monospace ; font-size: 11px ; text-align: left ; background-color: rgb(255 , 255 , 255)&quot;&gt;后羿&lt;br&gt;&lt;/span&gt;" style="rounded=1;whiteSpace=wrap;html=1;fontSize=12;" parent="1" vertex="1">
          <mxGeometry x="830" y="1460" width="80" height="30" as="geometry" />
        </mxCell>
        <mxCell id="hZrphyVDv4pvbZArS3AW-26" value="&lt;span style=&quot;color: rgb(32, 33, 36); font-family: menlo, monospace; font-size: 11px; text-align: left;&quot;&gt;禹&lt;br&gt;&lt;/span&gt;" style="rounded=1;whiteSpace=wrap;html=1;fontSize=12;fillColor=#d5e8d4;strokeColor=#82b366;" parent="1" vertex="1">
          <mxGeometry x="1020" y="1290" width="80" height="30" as="geometry" />
        </mxCell>
        <mxCell id="hZrphyVDv4pvbZArS3AW-39" value="&lt;span style=&quot;color: rgb(51, 51, 51); font-family: &amp;quot;PingFang SC&amp;quot;, &amp;quot;Lantinghei SC&amp;quot;, &amp;quot;Microsoft YaHei&amp;quot;, arial, 宋体, sans-serif, tahoma; font-size: 12px; text-align: start; background-color: rgb(255, 255, 255);&quot;&gt;烹饪业的始祖&lt;/span&gt;" style="rounded=0;whiteSpace=wrap;html=1;fontSize=11;" parent="1" vertex="1">
          <mxGeometry x="640" y="410" width="80" height="20" as="geometry" />
        </mxCell>
        <mxCell id="hZrphyVDv4pvbZArS3AW-40" value="&lt;span style=&quot;color: rgb(51, 51, 51); font-family: &amp;quot;PingFang SC&amp;quot;, &amp;quot;Lantinghei SC&amp;quot;, &amp;quot;Microsoft YaHei&amp;quot;, arial, 宋体, sans-serif, tahoma; font-size: 12px; text-align: start; background-color: rgb(255, 255, 255);&quot;&gt;镜子&lt;/span&gt;" style="rounded=0;whiteSpace=wrap;html=1;fontSize=11;" parent="1" vertex="1">
          <mxGeometry x="470" y="410" width="80" height="20" as="geometry" />
        </mxCell>
        <mxCell id="hZrphyVDv4pvbZArS3AW-42" value="&lt;span style=&quot;color: rgb(51, 51, 51); font-family: &amp;quot;PingFang SC&amp;quot;, &amp;quot;Lantinghei SC&amp;quot;, &amp;quot;Microsoft YaHei&amp;quot;, arial, 宋体, sans-serif, tahoma; font-size: 12px; text-align: start; background-color: rgb(255, 255, 255);&quot;&gt;梳子&lt;/span&gt;" style="rounded=0;whiteSpace=wrap;html=1;fontSize=11;" parent="1" vertex="1">
          <mxGeometry x="750" y="410" width="80" height="20" as="geometry" />
        </mxCell>
        <mxCell id="hZrphyVDv4pvbZArS3AW-68" style="edgeStyle=orthogonalEdgeStyle;rounded=0;orthogonalLoop=1;jettySize=auto;html=1;fontSize=12;fontColor=#330000;strokeColor=#330000;strokeWidth=1;" parent="1" source="hZrphyVDv4pvbZArS3AW-64" target="hZrphyVDv4pvbZArS3AW-65" edge="1">
          <mxGeometry relative="1" as="geometry" />
        </mxCell>
        <mxCell id="hZrphyVDv4pvbZArS3AW-69" style="edgeStyle=orthogonalEdgeStyle;rounded=0;orthogonalLoop=1;jettySize=auto;html=1;fontSize=12;fontColor=#330000;strokeColor=#330000;strokeWidth=1;" parent="1" source="hZrphyVDv4pvbZArS3AW-64" target="hZrphyVDv4pvbZArS3AW-67" edge="1">
          <mxGeometry relative="1" as="geometry" />
        </mxCell>
        <mxCell id="hZrphyVDv4pvbZArS3AW-64" value="手下" style="ellipse;whiteSpace=wrap;html=1;aspect=fixed;fontSize=12;" parent="1" vertex="1">
          <mxGeometry x="1175" y="730" width="50" height="50" as="geometry" />
        </mxCell>
        <mxCell id="hZrphyVDv4pvbZArS3AW-65" value="浮游" style="rounded=1;whiteSpace=wrap;html=1;fontSize=12;" parent="1" vertex="1">
          <mxGeometry x="1130" y="820" width="60" height="30" as="geometry" />
        </mxCell>
        <mxCell id="hZrphyVDv4pvbZArS3AW-67" value="相柳" style="rounded=1;whiteSpace=wrap;html=1;fontSize=12;" parent="1" vertex="1">
          <mxGeometry x="1211" y="820" width="60" height="30" as="geometry" />
        </mxCell>
        <mxCell id="hZrphyVDv4pvbZArS3AW-70" value="疫鬼" style="rounded=1;whiteSpace=wrap;html=1;fontSize=12;" parent="1" vertex="1">
          <mxGeometry x="1040" y="820" width="60" height="30" as="geometry" />
        </mxCell>
        <mxCell id="hZrphyVDv4pvbZArS3AW-73" value="不周山" style="rounded=0;whiteSpace=wrap;html=1;fontSize=12;" parent="1" vertex="1">
          <mxGeometry x="1315" y="760" width="50" height="20" as="geometry" />
        </mxCell>
        <mxCell id="hZrphyVDv4pvbZArS3AW-76" value="风伯（风神）" style="rounded=1;whiteSpace=wrap;html=1;fontSize=12;fillColor=#e1d5e7;strokeColor=#9673a6;" parent="1" vertex="1">
          <mxGeometry x="1450" y="332.5" width="79.5" height="30" as="geometry" />
        </mxCell>
        <mxCell id="hZrphyVDv4pvbZArS3AW-77" value="雨师（雨神）" style="rounded=1;whiteSpace=wrap;html=1;fontSize=12;fillColor=#e1d5e7;strokeColor=#9673a6;" parent="1" vertex="1">
          <mxGeometry x="1570" y="332.5" width="80" height="30" as="geometry" />
        </mxCell>
        <mxCell id="hZrphyVDv4pvbZArS3AW-83" style="edgeStyle=orthogonalEdgeStyle;curved=1;rounded=0;orthogonalLoop=1;jettySize=auto;html=1;fontSize=12;fontColor=#330000;strokeColor=#330000;strokeWidth=1;" parent="1" source="hZrphyVDv4pvbZArS3AW-80" target="hZrphyVDv4pvbZArS3AW-76" edge="1">
          <mxGeometry relative="1" as="geometry" />
        </mxCell>
        <mxCell id="hZrphyVDv4pvbZArS3AW-84" style="edgeStyle=orthogonalEdgeStyle;curved=1;rounded=0;orthogonalLoop=1;jettySize=auto;html=1;fontSize=12;fontColor=#330000;strokeColor=#330000;strokeWidth=1;" parent="1" source="hZrphyVDv4pvbZArS3AW-80" target="hZrphyVDv4pvbZArS3AW-77" edge="1">
          <mxGeometry relative="1" as="geometry" />
        </mxCell>
        <mxCell id="hZrphyVDv4pvbZArS3AW-80" value="手下" style="ellipse;whiteSpace=wrap;html=1;aspect=fixed;fontSize=12;" parent="1" vertex="1">
          <mxGeometry x="1550" y="230" width="50" height="50" as="geometry" />
        </mxCell>
        <mxCell id="hZrphyVDv4pvbZArS3AW-85" value="女魃(旱神）" style="rounded=1;whiteSpace=wrap;html=1;fontSize=12;fillColor=#e1d5e7;strokeColor=#9673a6;" parent="1" vertex="1">
          <mxGeometry x="1296" y="500" width="79" height="30" as="geometry" />
        </mxCell>
        <mxCell id="hZrphyVDv4pvbZArS3AW-89" value="阳符经" style="rounded=0;whiteSpace=wrap;html=1;fontSize=12;" parent="1" vertex="1">
          <mxGeometry x="1310" y="540" width="50" height="20" as="geometry" />
        </mxCell>
        <mxCell id="hZrphyVDv4pvbZArS3AW-92" value="81个兄弟" style="rounded=1;whiteSpace=wrap;html=1;fontSize=12;" parent="1" vertex="1">
          <mxGeometry x="1300" y="220" width="60" height="30" as="geometry" />
        </mxCell>
        <mxCell id="zzRG6BWtHzF1_lBF0FYj-2" style="edgeStyle=orthogonalEdgeStyle;curved=1;rounded=0;orthogonalLoop=1;jettySize=auto;html=1;fontSize=12;fontColor=#330000;strokeColor=#330000;strokeWidth=1;" parent="1" source="zzRG6BWtHzF1_lBF0FYj-1" target="hZrphyVDv4pvbZArS3AW-85" edge="1">
          <mxGeometry relative="1" as="geometry" />
        </mxCell>
        <mxCell id="zzRG6BWtHzF1_lBF0FYj-3" value="告状" style="edgeLabel;html=1;align=center;verticalAlign=middle;resizable=0;points=[];fontSize=12;fontColor=#330000;" parent="zzRG6BWtHzF1_lBF0FYj-2" vertex="1" connectable="0">
          <mxGeometry x="-0.0765" y="-1" relative="1" as="geometry">
            <mxPoint x="-1" as="offset" />
          </mxGeometry>
        </mxCell>
        <mxCell id="zzRG6BWtHzF1_lBF0FYj-1" value="叔均(田神）" style="rounded=1;whiteSpace=wrap;html=1;fontSize=12;fillColor=#e1d5e7;strokeColor=#9673a6;" parent="1" vertex="1">
          <mxGeometry x="1460" y="500" width="79" height="30" as="geometry" />
        </mxCell>
      </root>
    </mxGraphModel>
  </diagram>
  <diagram id="vEsUH_ufj1zKhk8sPfPx" name="五方天帝">
    <mxGraphModel dx="946" dy="614" grid="1" gridSize="10" guides="1" tooltips="1" connect="1" arrows="1" fold="1" page="1" pageScale="1" pageWidth="827" pageHeight="1169" math="0" shadow="0">
      <root>
        <mxCell id="0" />
        <mxCell id="1" parent="0" />
        <mxCell id="TkGAo6LiKam-TRN7KBNX-1" value="&lt;font style=&quot;font-size: 24px;&quot;&gt;北&lt;/font&gt;方天帝&lt;br&gt;&lt;font style=&quot;font-size: 24px;&quot;&gt;颛顼&lt;/font&gt;" style="rounded=0;whiteSpace=wrap;html=1;labelBackgroundColor=none;fontSize=12;fontColor=#330000;" vertex="1" parent="1">
          <mxGeometry x="340" y="160" width="120" height="60" as="geometry" />
        </mxCell>
        <mxCell id="TkGAo6LiKam-TRN7KBNX-2" value="&lt;font style=&quot;font-size: 24px;&quot;&gt;中&lt;/font&gt;央天帝&lt;br&gt;&lt;span style=&quot;font-size: 24px;&quot;&gt;黄帝&lt;/span&gt;" style="rounded=0;whiteSpace=wrap;html=1;labelBackgroundColor=none;fontSize=12;fillColor=#fff2cc;strokeColor=#d6b656;" vertex="1" parent="1">
          <mxGeometry x="340" y="280" width="120" height="60" as="geometry" />
        </mxCell>
        <mxCell id="TkGAo6LiKam-TRN7KBNX-3" value="&lt;font style=&quot;font-size: 24px;&quot;&gt;东&lt;/font&gt;方天帝&lt;br&gt;&lt;font style=&quot;font-size: 24px;&quot;&gt;伏羲&lt;/font&gt;" style="rounded=0;whiteSpace=wrap;html=1;labelBackgroundColor=none;fontSize=12;fillColor=#d5e8d4;strokeColor=#82b366;" vertex="1" parent="1">
          <mxGeometry x="550" y="280" width="120" height="60" as="geometry" />
        </mxCell>
        <mxCell id="TkGAo6LiKam-TRN7KBNX-4" value="&lt;font style=&quot;font-size: 24px;&quot;&gt;西&lt;/font&gt;方天帝&lt;br&gt;&lt;font style=&quot;font-size: 24px;&quot;&gt;少昊&lt;/font&gt;" style="rounded=0;whiteSpace=wrap;html=1;labelBackgroundColor=none;fontSize=12;fontColor=#330000;" vertex="1" parent="1">
          <mxGeometry x="130" y="280" width="120" height="60" as="geometry" />
        </mxCell>
        <mxCell id="TkGAo6LiKam-TRN7KBNX-5" value="&lt;font style=&quot;font-size: 24px;&quot;&gt;南&lt;/font&gt;方天帝&lt;br&gt;&lt;span style=&quot;font-size: 24px;&quot;&gt;炎帝&lt;/span&gt;" style="rounded=0;whiteSpace=wrap;html=1;labelBackgroundColor=none;fontSize=12;fillColor=#f8cecc;strokeColor=#b85450;" vertex="1" parent="1">
          <mxGeometry x="340" y="400" width="120" height="60" as="geometry" />
        </mxCell>
        <mxCell id="Sjj7S_J-juR7sH5jWODE-1" value="木神句芒" style="rounded=0;whiteSpace=wrap;html=1;labelBackgroundColor=none;fontSize=12;fontColor=#330000;" vertex="1" parent="1">
          <mxGeometry x="670" y="320" width="60" height="20" as="geometry" />
        </mxCell>
        <mxCell id="Sjj7S_J-juR7sH5jWODE-2" value="火神祝融" style="rounded=0;whiteSpace=wrap;html=1;labelBackgroundColor=none;fontSize=12;fontColor=#330000;" vertex="1" parent="1">
          <mxGeometry x="460" y="440" width="60" height="20" as="geometry" />
        </mxCell>
        <mxCell id="Sjj7S_J-juR7sH5jWODE-3" value="金神蓐收" style="rounded=0;whiteSpace=wrap;html=1;labelBackgroundColor=none;fontSize=12;fontColor=#330000;" vertex="1" parent="1">
          <mxGeometry x="250" y="320" width="60" height="20" as="geometry" />
        </mxCell>
        <mxCell id="Sjj7S_J-juR7sH5jWODE-4" value="水神玄冥" style="rounded=0;whiteSpace=wrap;html=1;labelBackgroundColor=none;fontSize=12;fontColor=#330000;" vertex="1" parent="1">
          <mxGeometry x="460" y="200" width="60" height="20" as="geometry" />
        </mxCell>
        <mxCell id="Sjj7S_J-juR7sH5jWODE-5" value="秤锤" style="rounded=0;whiteSpace=wrap;html=1;labelBackgroundColor=none;fontSize=12;fontColor=#330000;" vertex="1" parent="1">
          <mxGeometry x="460" y="180" width="50" height="20" as="geometry" />
        </mxCell>
        <mxCell id="Sjj7S_J-juR7sH5jWODE-6" value="圆规" style="rounded=0;whiteSpace=wrap;html=1;labelBackgroundColor=none;fontSize=12;fontColor=#330000;" vertex="1" parent="1">
          <mxGeometry x="670" y="300" width="50" height="20" as="geometry" />
        </mxCell>
        <mxCell id="Sjj7S_J-juR7sH5jWODE-7" value="曲尺" style="rounded=0;whiteSpace=wrap;html=1;labelBackgroundColor=none;fontSize=12;fontColor=#330000;" vertex="1" parent="1">
          <mxGeometry x="250" y="300" width="50" height="20" as="geometry" />
        </mxCell>
        <mxCell id="Sjj7S_J-juR7sH5jWODE-8" value="秤杆" style="rounded=0;whiteSpace=wrap;html=1;labelBackgroundColor=none;fontSize=12;fontColor=#330000;" vertex="1" parent="1">
          <mxGeometry x="460" y="420" width="50" height="20" as="geometry" />
        </mxCell>
        <mxCell id="Sjj7S_J-juR7sH5jWODE-9" value="土神后土" style="rounded=0;whiteSpace=wrap;html=1;labelBackgroundColor=none;fontSize=12;fontColor=#330000;" vertex="1" parent="1">
          <mxGeometry x="460" y="320" width="60" height="20" as="geometry" />
        </mxCell>
        <mxCell id="Sjj7S_J-juR7sH5jWODE-10" value="准绳" style="rounded=0;whiteSpace=wrap;html=1;labelBackgroundColor=none;fontSize=12;fontColor=#330000;" vertex="1" parent="1">
          <mxGeometry x="460" y="300" width="50" height="20" as="geometry" />
        </mxCell>
        <mxCell id="Sjj7S_J-juR7sH5jWODE-11" value="冬天" style="rounded=0;whiteSpace=wrap;html=1;labelBackgroundColor=none;fontSize=12;fontColor=#330000;" vertex="1" parent="1">
          <mxGeometry x="460" y="160" width="50" height="20" as="geometry" />
        </mxCell>
        <mxCell id="Sjj7S_J-juR7sH5jWODE-12" value="春天" style="rounded=0;whiteSpace=wrap;html=1;labelBackgroundColor=none;fontSize=12;fontColor=#330000;" vertex="1" parent="1">
          <mxGeometry x="670" y="280" width="50" height="20" as="geometry" />
        </mxCell>
        <mxCell id="Sjj7S_J-juR7sH5jWODE-13" value="秋天" style="rounded=0;whiteSpace=wrap;html=1;labelBackgroundColor=none;fontSize=12;fontColor=#330000;" vertex="1" parent="1">
          <mxGeometry x="250" y="280" width="50" height="20" as="geometry" />
        </mxCell>
        <mxCell id="Sjj7S_J-juR7sH5jWODE-14" value="夏天" style="rounded=0;whiteSpace=wrap;html=1;labelBackgroundColor=none;fontSize=12;fontColor=#330000;" vertex="1" parent="1">
          <mxGeometry x="460" y="400" width="50" height="20" as="geometry" />
        </mxCell>
      </root>
    </mxGraphModel>
  </diagram>
  <diagram id="ZKmbCuj8u3ZISUKuYgGu" name="炎帝">
    <mxGraphModel dx="946" dy="614" grid="1" gridSize="10" guides="1" tooltips="1" connect="1" arrows="1" fold="1" page="1" pageScale="1" pageWidth="827" pageHeight="1169" math="0" shadow="0">
      <root>
        <mxCell id="0" />
        <mxCell id="1" parent="0" />
        <mxCell id="DjtQ_Wbd_Y_zExlASpux-1" style="edgeStyle=orthogonalEdgeStyle;rounded=0;orthogonalLoop=1;jettySize=auto;html=1;" edge="1" parent="1" source="DjtQ_Wbd_Y_zExlASpux-5" target="DjtQ_Wbd_Y_zExlASpux-7">
          <mxGeometry relative="1" as="geometry" />
        </mxCell>
        <mxCell id="DjtQ_Wbd_Y_zExlASpux-2" style="edgeStyle=orthogonalEdgeStyle;rounded=0;orthogonalLoop=1;jettySize=auto;html=1;" edge="1" parent="1" source="DjtQ_Wbd_Y_zExlASpux-5" target="DjtQ_Wbd_Y_zExlASpux-22">
          <mxGeometry relative="1" as="geometry" />
        </mxCell>
        <mxCell id="DjtQ_Wbd_Y_zExlASpux-3" style="edgeStyle=orthogonalEdgeStyle;rounded=0;orthogonalLoop=1;jettySize=auto;html=1;" edge="1" parent="1" source="DjtQ_Wbd_Y_zExlASpux-5" target="DjtQ_Wbd_Y_zExlASpux-21">
          <mxGeometry relative="1" as="geometry" />
        </mxCell>
        <mxCell id="DjtQ_Wbd_Y_zExlASpux-4" value="称号" style="edgeLabel;html=1;align=center;verticalAlign=middle;resizable=0;points=[];" vertex="1" connectable="0" parent="DjtQ_Wbd_Y_zExlASpux-3">
          <mxGeometry x="-0.5882" y="2" relative="1" as="geometry">
            <mxPoint as="offset" />
          </mxGeometry>
        </mxCell>
        <mxCell id="w7WUQhbUvW91yEJrb7Da-6" style="edgeStyle=orthogonalEdgeStyle;curved=1;rounded=0;orthogonalLoop=1;jettySize=auto;html=1;fontSize=12;fontColor=#330000;strokeColor=#330000;strokeWidth=1;" edge="1" parent="1" source="DjtQ_Wbd_Y_zExlASpux-5" target="w7WUQhbUvW91yEJrb7Da-5">
          <mxGeometry relative="1" as="geometry" />
        </mxCell>
        <mxCell id="w7WUQhbUvW91yEJrb7Da-7" value="生女" style="edgeLabel;html=1;align=center;verticalAlign=middle;resizable=0;points=[];fontSize=12;fontColor=#330000;" vertex="1" connectable="0" parent="w7WUQhbUvW91yEJrb7Da-6">
          <mxGeometry x="0.4104" y="13" relative="1" as="geometry">
            <mxPoint x="7" y="10" as="offset" />
          </mxGeometry>
        </mxCell>
        <mxCell id="DjtQ_Wbd_Y_zExlASpux-5" value="&lt;font style=&quot;font-size: 22px&quot;&gt;炎帝&lt;/font&gt;&lt;br&gt;姓姜/神农氏/&lt;span style=&quot;color: rgb(32, 33, 36); font-family: menlo, monospace; font-size: 11px; text-align: left;&quot;&gt;魁隗氏、连山氏/烈山氏/赤帝&lt;/span&gt;" style="ellipse;whiteSpace=wrap;html=1;fillColor=#f8cecc;strokeColor=#b85450;" vertex="1" parent="1">
          <mxGeometry x="354" y="150" width="120" height="80" as="geometry" />
        </mxCell>
        <mxCell id="DjtQ_Wbd_Y_zExlASpux-6" style="edgeStyle=orthogonalEdgeStyle;rounded=0;orthogonalLoop=1;jettySize=auto;html=1;" edge="1" parent="1" source="DjtQ_Wbd_Y_zExlASpux-7" target="DjtQ_Wbd_Y_zExlASpux-9">
          <mxGeometry relative="1" as="geometry" />
        </mxCell>
        <mxCell id="DjtQ_Wbd_Y_zExlASpux-7" value="&lt;font color=&quot;#333333&quot;&gt;&lt;span style=&quot;background-color: rgb(255, 255, 255);&quot;&gt;帝魁&lt;/span&gt;&lt;/font&gt;" style="rounded=1;whiteSpace=wrap;html=1;fontSize=12;" vertex="1" parent="1">
          <mxGeometry x="384" y="270" width="60" height="30" as="geometry" />
        </mxCell>
        <mxCell id="DjtQ_Wbd_Y_zExlASpux-8" style="edgeStyle=orthogonalEdgeStyle;rounded=0;orthogonalLoop=1;jettySize=auto;html=1;" edge="1" parent="1" source="DjtQ_Wbd_Y_zExlASpux-9" target="DjtQ_Wbd_Y_zExlASpux-11">
          <mxGeometry relative="1" as="geometry" />
        </mxCell>
        <mxCell id="DjtQ_Wbd_Y_zExlASpux-9" value="&lt;font color=&quot;#333333&quot;&gt;&lt;span style=&quot;background-color: rgb(255, 255, 255);&quot;&gt;帝承&lt;/span&gt;&lt;/font&gt;" style="rounded=1;whiteSpace=wrap;html=1;fontSize=12;" vertex="1" parent="1">
          <mxGeometry x="384" y="340" width="60" height="30" as="geometry" />
        </mxCell>
        <mxCell id="DjtQ_Wbd_Y_zExlASpux-10" style="edgeStyle=orthogonalEdgeStyle;rounded=0;orthogonalLoop=1;jettySize=auto;html=1;" edge="1" parent="1" source="DjtQ_Wbd_Y_zExlASpux-11" target="DjtQ_Wbd_Y_zExlASpux-13">
          <mxGeometry relative="1" as="geometry" />
        </mxCell>
        <mxCell id="DjtQ_Wbd_Y_zExlASpux-11" value="&lt;font color=&quot;#333333&quot;&gt;&lt;span style=&quot;background-color: rgb(255, 255, 255);&quot;&gt;帝明&lt;/span&gt;&lt;/font&gt;" style="rounded=1;whiteSpace=wrap;html=1;fontSize=12;" vertex="1" parent="1">
          <mxGeometry x="384" y="400" width="60" height="30" as="geometry" />
        </mxCell>
        <mxCell id="DjtQ_Wbd_Y_zExlASpux-12" style="edgeStyle=orthogonalEdgeStyle;rounded=0;orthogonalLoop=1;jettySize=auto;html=1;" edge="1" parent="1" source="DjtQ_Wbd_Y_zExlASpux-13" target="DjtQ_Wbd_Y_zExlASpux-15">
          <mxGeometry relative="1" as="geometry" />
        </mxCell>
        <mxCell id="DjtQ_Wbd_Y_zExlASpux-13" value="&lt;font color=&quot;#333333&quot;&gt;&lt;span style=&quot;background-color: rgb(255, 255, 255);&quot;&gt;帝直&lt;/span&gt;&lt;/font&gt;" style="rounded=1;whiteSpace=wrap;html=1;fontSize=12;" vertex="1" parent="1">
          <mxGeometry x="384" y="460" width="60" height="30" as="geometry" />
        </mxCell>
        <mxCell id="DjtQ_Wbd_Y_zExlASpux-14" style="edgeStyle=orthogonalEdgeStyle;rounded=0;orthogonalLoop=1;jettySize=auto;html=1;" edge="1" parent="1" source="DjtQ_Wbd_Y_zExlASpux-15" target="DjtQ_Wbd_Y_zExlASpux-17">
          <mxGeometry relative="1" as="geometry" />
        </mxCell>
        <mxCell id="DjtQ_Wbd_Y_zExlASpux-15" value="&lt;span style=&quot;color: rgb(32, 33, 36); font-family: menlo, monospace; font-size: 11px; text-align: left; background-color: rgb(255, 255, 255);&quot;&gt;帝氂&lt;/span&gt;" style="rounded=1;whiteSpace=wrap;html=1;fontSize=12;" vertex="1" parent="1">
          <mxGeometry x="384" y="520" width="60" height="30" as="geometry" />
        </mxCell>
        <mxCell id="DjtQ_Wbd_Y_zExlASpux-16" style="edgeStyle=orthogonalEdgeStyle;rounded=0;orthogonalLoop=1;jettySize=auto;html=1;" edge="1" parent="1" source="DjtQ_Wbd_Y_zExlASpux-17" target="DjtQ_Wbd_Y_zExlASpux-19">
          <mxGeometry relative="1" as="geometry" />
        </mxCell>
        <mxCell id="DjtQ_Wbd_Y_zExlASpux-17" value="&lt;span style=&quot;color: rgb(32, 33, 36); font-family: menlo, monospace; font-size: 11px; text-align: left; background-color: rgb(255, 255, 255);&quot;&gt;帝哀&lt;/span&gt;" style="rounded=1;whiteSpace=wrap;html=1;fontSize=12;" vertex="1" parent="1">
          <mxGeometry x="384" y="580" width="60" height="30" as="geometry" />
        </mxCell>
        <mxCell id="DjtQ_Wbd_Y_zExlASpux-18" style="edgeStyle=orthogonalEdgeStyle;rounded=0;orthogonalLoop=1;jettySize=auto;html=1;" edge="1" parent="1" source="DjtQ_Wbd_Y_zExlASpux-19" target="DjtQ_Wbd_Y_zExlASpux-20">
          <mxGeometry relative="1" as="geometry" />
        </mxCell>
        <mxCell id="DjtQ_Wbd_Y_zExlASpux-19" value="&lt;span style=&quot;color: rgb(32, 33, 36); font-family: menlo, monospace; font-size: 11px; text-align: left; background-color: rgb(255, 255, 255);&quot;&gt;帝克&lt;/span&gt;" style="rounded=1;whiteSpace=wrap;html=1;fontSize=12;" vertex="1" parent="1">
          <mxGeometry x="384" y="640" width="60" height="30" as="geometry" />
        </mxCell>
        <mxCell id="DjtQ_Wbd_Y_zExlASpux-20" value="&lt;span style=&quot;color: rgb(32, 33, 36); font-family: menlo, monospace; font-size: 11px; text-align: left; background-color: rgb(255, 255, 255);&quot;&gt;帝榆罔&lt;/span&gt;" style="rounded=1;whiteSpace=wrap;html=1;fontSize=12;" vertex="1" parent="1">
          <mxGeometry x="384" y="700" width="60" height="30" as="geometry" />
        </mxCell>
        <mxCell id="KTl38RcgoikCnli2PRoY-2" style="edgeStyle=orthogonalEdgeStyle;curved=1;rounded=0;orthogonalLoop=1;jettySize=auto;html=1;fontSize=12;fontColor=#330000;strokeColor=#330000;strokeWidth=1;" edge="1" parent="1" source="DjtQ_Wbd_Y_zExlASpux-21" target="KTl38RcgoikCnli2PRoY-1">
          <mxGeometry relative="1" as="geometry" />
        </mxCell>
        <mxCell id="KTl38RcgoikCnli2PRoY-3" value="著" style="edgeLabel;html=1;align=center;verticalAlign=middle;resizable=0;points=[];fontSize=12;fontColor=#330000;" vertex="1" connectable="0" parent="KTl38RcgoikCnli2PRoY-2">
          <mxGeometry x="-0.0667" relative="1" as="geometry">
            <mxPoint as="offset" />
          </mxGeometry>
        </mxCell>
        <mxCell id="DjtQ_Wbd_Y_zExlASpux-21" value="&lt;span style=&quot;color: rgb(51, 51, 51); font-family: &amp;quot;PingFang SC&amp;quot;, &amp;quot;Lantinghei SC&amp;quot;, &amp;quot;Microsoft YaHei&amp;quot;, arial, 宋体, sans-serif, tahoma; font-size: 12px; text-align: start; background-color: rgb(255, 255, 255);&quot;&gt;医药之神&lt;/span&gt;" style="rounded=0;whiteSpace=wrap;html=1;fontSize=11;" vertex="1" parent="1">
          <mxGeometry x="590" y="200" width="80" height="20" as="geometry" />
        </mxCell>
        <mxCell id="DjtQ_Wbd_Y_zExlASpux-22" value="&lt;span style=&quot;color: rgb(51, 51, 51); font-family: &amp;quot;PingFang SC&amp;quot;, &amp;quot;Lantinghei SC&amp;quot;, &amp;quot;Microsoft YaHei&amp;quot;, arial, 宋体, sans-serif, tahoma; font-size: 12px; text-align: start; background-color: rgb(255, 255, 255);&quot;&gt;农业之神&lt;/span&gt;" style="rounded=0;whiteSpace=wrap;html=1;fontSize=11;" vertex="1" parent="1">
          <mxGeometry x="590" y="170" width="80" height="20" as="geometry" />
        </mxCell>
        <mxCell id="KTl38RcgoikCnli2PRoY-1" value="&lt;span style=&quot;color: rgb(51, 51, 51); font-family: &amp;quot;PingFang SC&amp;quot;, &amp;quot;Lantinghei SC&amp;quot;, &amp;quot;Microsoft YaHei&amp;quot;, arial, 宋体, sans-serif, tahoma; font-size: 12px; text-align: start; background-color: rgb(255, 255, 255);&quot;&gt;《本草经》&lt;/span&gt;" style="rounded=0;whiteSpace=wrap;html=1;fontSize=11;" vertex="1" parent="1">
          <mxGeometry x="730" y="200" width="80" height="20" as="geometry" />
        </mxCell>
        <mxCell id="KTl38RcgoikCnli2PRoY-7" style="edgeStyle=orthogonalEdgeStyle;curved=1;rounded=0;orthogonalLoop=1;jettySize=auto;html=1;fontSize=12;fontColor=#330000;strokeColor=#330000;strokeWidth=1;" edge="1" parent="1" source="KTl38RcgoikCnli2PRoY-4" target="KTl38RcgoikCnli2PRoY-6">
          <mxGeometry relative="1" as="geometry" />
        </mxCell>
        <mxCell id="w7WUQhbUvW91yEJrb7Da-15" value="生子" style="edgeLabel;html=1;align=center;verticalAlign=middle;resizable=0;points=[];fontSize=12;fontColor=#330000;" vertex="1" connectable="0" parent="KTl38RcgoikCnli2PRoY-7">
          <mxGeometry y="2" relative="1" as="geometry">
            <mxPoint as="offset" />
          </mxGeometry>
        </mxCell>
        <mxCell id="KTl38RcgoikCnli2PRoY-14" style="edgeStyle=orthogonalEdgeStyle;curved=1;rounded=0;orthogonalLoop=1;jettySize=auto;html=1;fontSize=12;fontColor=#330000;strokeColor=#330000;strokeWidth=1;" edge="1" parent="1" source="KTl38RcgoikCnli2PRoY-4" target="KTl38RcgoikCnli2PRoY-5">
          <mxGeometry relative="1" as="geometry" />
        </mxCell>
        <mxCell id="w7WUQhbUvW91yEJrb7Da-14" value="生女" style="edgeLabel;html=1;align=center;verticalAlign=middle;resizable=0;points=[];fontSize=12;fontColor=#330000;" vertex="1" connectable="0" parent="KTl38RcgoikCnli2PRoY-14">
          <mxGeometry x="-0.3333" y="12" relative="1" as="geometry">
            <mxPoint as="offset" />
          </mxGeometry>
        </mxCell>
        <mxCell id="OUSu5A0iZglDYv-cCCYt-7" style="edgeStyle=orthogonalEdgeStyle;curved=1;rounded=0;orthogonalLoop=1;jettySize=auto;html=1;fontSize=12;fontColor=#330000;strokeColor=#330000;strokeWidth=1;" edge="1" parent="1" source="KTl38RcgoikCnli2PRoY-4" target="DjtQ_Wbd_Y_zExlASpux-5">
          <mxGeometry relative="1" as="geometry" />
        </mxCell>
        <mxCell id="OUSu5A0iZglDYv-cCCYt-8" value="妻子" style="edgeLabel;html=1;align=center;verticalAlign=middle;resizable=0;points=[];fontSize=12;fontColor=#330000;" vertex="1" connectable="0" parent="OUSu5A0iZglDYv-cCCYt-7">
          <mxGeometry x="0.1098" y="1" relative="1" as="geometry">
            <mxPoint y="1" as="offset" />
          </mxGeometry>
        </mxCell>
        <mxCell id="KTl38RcgoikCnli2PRoY-4" value="&lt;font color=&quot;#333333&quot;&gt;听訞 yao&lt;br&gt;&lt;/font&gt;&lt;span style=&quot;color: rgb(51, 51, 51); font-family: Arial, sans-serif; font-size: 13px; text-align: start; background-color: rgb(255, 255, 255);&quot;&gt;桑水氏&lt;/span&gt;&lt;font color=&quot;#333333&quot;&gt;&lt;br&gt;&lt;/font&gt;" style="rounded=1;whiteSpace=wrap;html=1;fontSize=12;" vertex="1" parent="1">
          <mxGeometry x="150" y="175" width="60" height="30" as="geometry" />
        </mxCell>
        <mxCell id="KTl38RcgoikCnli2PRoY-5" value="&lt;font color=&quot;#333333&quot;&gt;精卫 女娃&lt;br&gt;&lt;/font&gt;" style="rounded=1;whiteSpace=wrap;html=1;fontSize=12;" vertex="1" parent="1">
          <mxGeometry x="60" y="250" width="60" height="30" as="geometry" />
        </mxCell>
        <mxCell id="KTl38RcgoikCnli2PRoY-9" style="edgeStyle=orthogonalEdgeStyle;curved=1;rounded=0;orthogonalLoop=1;jettySize=auto;html=1;fontSize=12;fontColor=#330000;strokeColor=#330000;strokeWidth=1;" edge="1" parent="1" source="KTl38RcgoikCnli2PRoY-6" target="KTl38RcgoikCnli2PRoY-8">
          <mxGeometry relative="1" as="geometry" />
        </mxCell>
        <mxCell id="w7WUQhbUvW91yEJrb7Da-16" value="生子" style="edgeLabel;html=1;align=center;verticalAlign=middle;resizable=0;points=[];fontSize=12;fontColor=#330000;" vertex="1" connectable="0" parent="KTl38RcgoikCnli2PRoY-9">
          <mxGeometry x="0.22" y="-1" relative="1" as="geometry">
            <mxPoint x="1" y="-7" as="offset" />
          </mxGeometry>
        </mxCell>
        <mxCell id="KTl38RcgoikCnli2PRoY-6" value="&lt;font color=&quot;#333333&quot;&gt;炎居&lt;br&gt;&lt;/font&gt;" style="rounded=1;whiteSpace=wrap;html=1;fontSize=12;" vertex="1" parent="1">
          <mxGeometry x="150" y="250" width="60" height="30" as="geometry" />
        </mxCell>
        <mxCell id="KTl38RcgoikCnli2PRoY-11" style="edgeStyle=orthogonalEdgeStyle;curved=1;rounded=0;orthogonalLoop=1;jettySize=auto;html=1;fontSize=12;fontColor=#330000;strokeColor=#330000;strokeWidth=1;" edge="1" parent="1" source="KTl38RcgoikCnli2PRoY-8" target="KTl38RcgoikCnli2PRoY-10">
          <mxGeometry relative="1" as="geometry" />
        </mxCell>
        <mxCell id="w7WUQhbUvW91yEJrb7Da-18" value="生子" style="edgeLabel;html=1;align=center;verticalAlign=middle;resizable=0;points=[];fontSize=12;fontColor=#330000;" vertex="1" connectable="0" parent="KTl38RcgoikCnli2PRoY-11">
          <mxGeometry x="0.3" y="2" relative="1" as="geometry">
            <mxPoint x="-2" y="-14" as="offset" />
          </mxGeometry>
        </mxCell>
        <mxCell id="KTl38RcgoikCnli2PRoY-8" value="&lt;font color=&quot;#333333&quot;&gt;节并&lt;br&gt;&lt;/font&gt;" style="rounded=1;whiteSpace=wrap;html=1;fontSize=12;" vertex="1" parent="1">
          <mxGeometry x="150" y="325" width="60" height="30" as="geometry" />
        </mxCell>
        <mxCell id="KTl38RcgoikCnli2PRoY-13" style="edgeStyle=orthogonalEdgeStyle;curved=1;rounded=0;orthogonalLoop=1;jettySize=auto;html=1;fontSize=12;fontColor=#330000;strokeColor=#330000;strokeWidth=1;exitX=0.5;exitY=1;exitDx=0;exitDy=0;" edge="1" parent="1" source="KTl38RcgoikCnli2PRoY-10" target="KTl38RcgoikCnli2PRoY-12">
          <mxGeometry relative="1" as="geometry">
            <mxPoint x="180" y="440" as="sourcePoint" />
          </mxGeometry>
        </mxCell>
        <mxCell id="w7WUQhbUvW91yEJrb7Da-17" value="生子" style="edgeLabel;html=1;align=center;verticalAlign=middle;resizable=0;points=[];fontSize=12;fontColor=#330000;" vertex="1" connectable="0" parent="KTl38RcgoikCnli2PRoY-13">
          <mxGeometry x="-0.1333" y="1" relative="1" as="geometry">
            <mxPoint as="offset" />
          </mxGeometry>
        </mxCell>
        <mxCell id="KTl38RcgoikCnli2PRoY-10" value="&lt;font color=&quot;#333333&quot;&gt;戏器&lt;br&gt;&lt;/font&gt;" style="rounded=1;whiteSpace=wrap;html=1;fontSize=12;" vertex="1" parent="1">
          <mxGeometry x="150" y="400" width="60" height="30" as="geometry" />
        </mxCell>
        <mxCell id="KTl38RcgoikCnli2PRoY-16" style="edgeStyle=orthogonalEdgeStyle;curved=1;rounded=0;orthogonalLoop=1;jettySize=auto;html=1;fontSize=12;fontColor=#330000;strokeColor=#330000;strokeWidth=1;exitX=0.5;exitY=1;exitDx=0;exitDy=0;" edge="1" parent="1" source="KTl38RcgoikCnli2PRoY-12" target="KTl38RcgoikCnli2PRoY-15">
          <mxGeometry relative="1" as="geometry">
            <mxPoint x="180" y="530" as="sourcePoint" />
          </mxGeometry>
        </mxCell>
        <mxCell id="w7WUQhbUvW91yEJrb7Da-19" value="生子" style="edgeLabel;html=1;align=center;verticalAlign=middle;resizable=0;points=[];fontSize=12;fontColor=#330000;" vertex="1" connectable="0" parent="KTl38RcgoikCnli2PRoY-16">
          <mxGeometry x="-0.1667" y="-1" relative="1" as="geometry">
            <mxPoint y="1" as="offset" />
          </mxGeometry>
        </mxCell>
        <mxCell id="OUSu5A0iZglDYv-cCCYt-2" style="edgeStyle=orthogonalEdgeStyle;curved=1;rounded=0;orthogonalLoop=1;jettySize=auto;html=1;entryX=0.5;entryY=0;entryDx=0;entryDy=0;fontSize=12;fontColor=#330000;strokeColor=#330000;strokeWidth=1;" edge="1" parent="1" source="KTl38RcgoikCnli2PRoY-12" target="OUSu5A0iZglDYv-cCCYt-1">
          <mxGeometry relative="1" as="geometry" />
        </mxCell>
        <mxCell id="OUSu5A0iZglDYv-cCCYt-3" value="杀死" style="edgeLabel;html=1;align=center;verticalAlign=middle;resizable=0;points=[];fontSize=12;fontColor=#330000;" vertex="1" connectable="0" parent="OUSu5A0iZglDYv-cCCYt-2">
          <mxGeometry x="-0.0435" y="6" relative="1" as="geometry">
            <mxPoint as="offset" />
          </mxGeometry>
        </mxCell>
        <mxCell id="KTl38RcgoikCnli2PRoY-12" value="&lt;font color=&quot;#333333&quot;&gt;祝融（火神）&lt;br&gt;&lt;/font&gt;" style="rounded=1;whiteSpace=wrap;html=1;fontSize=12;fillColor=#e1d5e7;strokeColor=#9673a6;" vertex="1" parent="1">
          <mxGeometry x="140" y="482" width="80" height="30" as="geometry" />
        </mxCell>
        <mxCell id="mFpSl1MG81fYOiPys-40-2" style="edgeStyle=orthogonalEdgeStyle;curved=1;rounded=0;orthogonalLoop=1;jettySize=auto;html=1;fontSize=12;fontColor=#330000;strokeColor=#330000;strokeWidth=1;" edge="1" parent="1" source="KTl38RcgoikCnli2PRoY-15" target="mFpSl1MG81fYOiPys-40-1">
          <mxGeometry relative="1" as="geometry" />
        </mxCell>
        <mxCell id="mFpSl1MG81fYOiPys-40-3" value="争位" style="edgeLabel;html=1;align=center;verticalAlign=middle;resizable=0;points=[];fontSize=12;fontColor=#330000;" vertex="1" connectable="0" parent="mFpSl1MG81fYOiPys-40-2">
          <mxGeometry x="-0.0286" relative="1" as="geometry">
            <mxPoint y="1" as="offset" />
          </mxGeometry>
        </mxCell>
        <mxCell id="KTl38RcgoikCnli2PRoY-15" value="&lt;font color=&quot;#333333&quot;&gt;共工（水神）&lt;br&gt;&lt;/font&gt;" style="rounded=1;whiteSpace=wrap;html=1;fontSize=12;fillColor=#e1d5e7;strokeColor=#9673a6;" vertex="1" parent="1">
          <mxGeometry x="140" y="560" width="80" height="30" as="geometry" />
        </mxCell>
        <mxCell id="OUSu5A0iZglDYv-cCCYt-5" style="edgeStyle=orthogonalEdgeStyle;curved=1;rounded=0;orthogonalLoop=1;jettySize=auto;html=1;fontSize=12;fontColor=#330000;strokeColor=#330000;strokeWidth=1;" edge="1" parent="1" source="OUSu5A0iZglDYv-cCCYt-1" target="OUSu5A0iZglDYv-cCCYt-4">
          <mxGeometry relative="1" as="geometry" />
        </mxCell>
        <mxCell id="OUSu5A0iZglDYv-cCCYt-6" value="盗窃" style="edgeLabel;html=1;align=center;verticalAlign=middle;resizable=0;points=[];fontSize=12;fontColor=#330000;" vertex="1" connectable="0" parent="OUSu5A0iZglDYv-cCCYt-5">
          <mxGeometry x="0.34" y="1" relative="1" as="geometry">
            <mxPoint x="-1" y="-14" as="offset" />
          </mxGeometry>
        </mxCell>
        <mxCell id="OUSu5A0iZglDYv-cCCYt-1" value="&lt;font color=&quot;#333333&quot;&gt;鲧&lt;br&gt;&lt;/font&gt;" style="rounded=1;whiteSpace=wrap;html=1;fontSize=12;" vertex="1" parent="1">
          <mxGeometry x="20" y="560" width="80" height="30" as="geometry" />
        </mxCell>
        <mxCell id="OUSu5A0iZglDYv-cCCYt-4" value="&lt;span style=&quot;color: rgb(51, 51, 51); font-family: &amp;quot;PingFang SC&amp;quot;, &amp;quot;Lantinghei SC&amp;quot;, &amp;quot;Microsoft YaHei&amp;quot;, arial, 宋体, sans-serif, tahoma; font-size: 12px; text-align: start; background-color: rgb(255, 255, 255);&quot;&gt;息壤&lt;/span&gt;" style="rounded=0;whiteSpace=wrap;html=1;fontSize=11;" vertex="1" parent="1">
          <mxGeometry x="20" y="640" width="80" height="20" as="geometry" />
        </mxCell>
        <mxCell id="mFpSl1MG81fYOiPys-40-1" value="&lt;font color=&quot;#333333&quot;&gt;颛顼&lt;br&gt;&lt;/font&gt;" style="rounded=1;whiteSpace=wrap;html=1;fontSize=12;" vertex="1" parent="1">
          <mxGeometry x="290" y="560" width="50" height="30" as="geometry" />
        </mxCell>
        <mxCell id="w7WUQhbUvW91yEJrb7Da-3" style="edgeStyle=orthogonalEdgeStyle;curved=1;rounded=0;orthogonalLoop=1;jettySize=auto;html=1;fontSize=12;fontColor=#330000;strokeColor=#330000;strokeWidth=1;" edge="1" parent="1" source="w7WUQhbUvW91yEJrb7Da-1" target="w7WUQhbUvW91yEJrb7Da-2">
          <mxGeometry relative="1" as="geometry" />
        </mxCell>
        <mxCell id="w7WUQhbUvW91yEJrb7Da-4" value="辅佐" style="edgeLabel;html=1;align=center;verticalAlign=middle;resizable=0;points=[];fontSize=12;fontColor=#330000;" vertex="1" connectable="0" parent="w7WUQhbUvW91yEJrb7Da-3">
          <mxGeometry x="0.0571" relative="1" as="geometry">
            <mxPoint y="1" as="offset" />
          </mxGeometry>
        </mxCell>
        <mxCell id="w7WUQhbUvW91yEJrb7Da-1" value="&lt;font color=&quot;#333333&quot;&gt;后土（土神）&lt;br&gt;&lt;/font&gt;" style="rounded=1;whiteSpace=wrap;html=1;fontSize=12;fillColor=#e1d5e7;strokeColor=#9673a6;" vertex="1" parent="1">
          <mxGeometry x="140" y="610" width="80" height="30" as="geometry" />
        </mxCell>
        <mxCell id="w7WUQhbUvW91yEJrb7Da-2" value="黄帝" style="rounded=1;whiteSpace=wrap;html=1;fontSize=12;" vertex="1" parent="1">
          <mxGeometry x="290" y="610" width="50" height="30" as="geometry" />
        </mxCell>
        <mxCell id="w7WUQhbUvW91yEJrb7Da-9" style="edgeStyle=orthogonalEdgeStyle;curved=1;rounded=0;orthogonalLoop=1;jettySize=auto;html=1;fontSize=12;fontColor=#330000;strokeColor=#330000;strokeWidth=1;" edge="1" parent="1" source="w7WUQhbUvW91yEJrb7Da-5" target="w7WUQhbUvW91yEJrb7Da-8">
          <mxGeometry relative="1" as="geometry" />
        </mxCell>
        <mxCell id="w7WUQhbUvW91yEJrb7Da-10" value="变成" style="edgeLabel;html=1;align=center;verticalAlign=middle;resizable=0;points=[];fontSize=12;fontColor=#330000;" vertex="1" connectable="0" parent="w7WUQhbUvW91yEJrb7Da-9">
          <mxGeometry x="-0.15" relative="1" as="geometry">
            <mxPoint as="offset" />
          </mxGeometry>
        </mxCell>
        <mxCell id="w7WUQhbUvW91yEJrb7Da-5" value="&lt;font color=&quot;#333333&quot;&gt;瑶姬&lt;br&gt;巫山神女&lt;br&gt;&lt;/font&gt;" style="rounded=1;whiteSpace=wrap;html=1;fontSize=12;" vertex="1" parent="1">
          <mxGeometry x="250" y="250" width="60" height="30" as="geometry" />
        </mxCell>
        <mxCell id="w7WUQhbUvW91yEJrb7Da-8" value="&lt;span style=&quot;color: rgb(51, 51, 51); font-family: &amp;quot;PingFang SC&amp;quot;, &amp;quot;Lantinghei SC&amp;quot;, &amp;quot;Microsoft YaHei&amp;quot;, arial, 宋体, sans-serif, tahoma; font-size: 12px; text-align: start; background-color: rgb(255, 255, 255);&quot;&gt;瑶草（爱情草）&lt;/span&gt;" style="rounded=0;whiteSpace=wrap;html=1;fontSize=11;" vertex="1" parent="1">
          <mxGeometry x="230" y="335" width="100" height="20" as="geometry" />
        </mxCell>
        <mxCell id="w7WUQhbUvW91yEJrb7Da-12" style="edgeStyle=orthogonalEdgeStyle;curved=1;rounded=0;orthogonalLoop=1;jettySize=auto;html=1;fontSize=12;fontColor=#330000;strokeColor=#330000;strokeWidth=1;" edge="1" parent="1" source="w7WUQhbUvW91yEJrb7Da-11" target="KTl38RcgoikCnli2PRoY-5">
          <mxGeometry relative="1" as="geometry" />
        </mxCell>
        <mxCell id="w7WUQhbUvW91yEJrb7Da-13" value="娶" style="edgeLabel;html=1;align=center;verticalAlign=middle;resizable=0;points=[];fontSize=12;fontColor=#330000;" vertex="1" connectable="0" parent="w7WUQhbUvW91yEJrb7Da-12">
          <mxGeometry x="-0.1" y="3" relative="1" as="geometry">
            <mxPoint y="1" as="offset" />
          </mxGeometry>
        </mxCell>
        <mxCell id="w7WUQhbUvW91yEJrb7Da-11" value="&lt;font color=&quot;#333333&quot;&gt;海燕&lt;br&gt;&lt;/font&gt;" style="rounded=1;whiteSpace=wrap;html=1;fontSize=12;" vertex="1" parent="1">
          <mxGeometry x="10" y="170" width="60" height="30" as="geometry" />
        </mxCell>
      </root>
    </mxGraphModel>
  </diagram>
  <diagram id="WNCOBRXmiH9mIMDIG7oz" name="伏羲">
    <mxGraphModel dx="1183" dy="768" grid="1" gridSize="10" guides="1" tooltips="1" connect="1" arrows="1" fold="1" page="1" pageScale="1" pageWidth="827" pageHeight="1169" math="0" shadow="0">
      <root>
        <mxCell id="0" />
        <mxCell id="1" parent="0" />
        <mxCell id="cg3DY2gx857722qw4oC--6" value="" style="rounded=0;whiteSpace=wrap;html=1;labelBackgroundColor=none;fontSize=12;fontColor=#330000;" vertex="1" parent="1">
          <mxGeometry x="350" y="210" width="120" height="160" as="geometry" />
        </mxCell>
        <mxCell id="cg3DY2gx857722qw4oC--2" style="edgeStyle=orthogonalEdgeStyle;curved=1;rounded=0;orthogonalLoop=1;jettySize=auto;html=1;fontSize=12;fontColor=#330000;strokeColor=#330000;strokeWidth=1;" edge="1" parent="1" source="dyrA6bt0p0aXRxlV8k7_-1" target="a8YQ2_qvu3MJN7NuMrGp-1">
          <mxGeometry relative="1" as="geometry" />
        </mxCell>
        <mxCell id="dyrA6bt0p0aXRxlV8k7_-1" value="&lt;font style=&quot;&quot;&gt;&lt;span style=&quot;font-size: 22px;&quot;&gt;伏羲&lt;/span&gt;&lt;br&gt;&lt;font style=&quot;font-size: 12px;&quot;&gt;太昊&lt;/font&gt;&lt;br&gt;&lt;/font&gt;" style="ellipse;whiteSpace=wrap;html=1;fillColor=#d5e8d4;strokeColor=#82b366;" vertex="1" parent="1">
          <mxGeometry x="234" y="110" width="120" height="80" as="geometry" />
        </mxCell>
        <mxCell id="H5jQDt75XuZsCcyOqJ6_-2" style="edgeStyle=orthogonalEdgeStyle;curved=1;rounded=0;orthogonalLoop=1;jettySize=auto;html=1;fontSize=24;fontColor=#330000;strokeColor=#330000;strokeWidth=1;" edge="1" parent="1" source="H5jQDt75XuZsCcyOqJ6_-1" target="dyrA6bt0p0aXRxlV8k7_-1">
          <mxGeometry relative="1" as="geometry" />
        </mxCell>
        <mxCell id="H5jQDt75XuZsCcyOqJ6_-3" value="母亲" style="edgeLabel;html=1;align=center;verticalAlign=middle;resizable=0;points=[];fontSize=12;fontColor=#330000;" vertex="1" connectable="0" parent="H5jQDt75XuZsCcyOqJ6_-2">
          <mxGeometry x="-0.1754" y="1" relative="1" as="geometry">
            <mxPoint x="3" y="1" as="offset" />
          </mxGeometry>
        </mxCell>
        <mxCell id="H5jQDt75XuZsCcyOqJ6_-1" value="&lt;font color=&quot;#333333&quot;&gt;&lt;span style=&quot;background-color: rgb(255, 255, 255);&quot;&gt;华胥氏&lt;/span&gt;&lt;/font&gt;" style="rounded=1;whiteSpace=wrap;html=1;fontSize=12;" vertex="1" parent="1">
          <mxGeometry x="60" y="135" width="60" height="30" as="geometry" />
        </mxCell>
        <mxCell id="H5jQDt75XuZsCcyOqJ6_-5" style="edgeStyle=orthogonalEdgeStyle;curved=1;rounded=0;orthogonalLoop=1;jettySize=auto;html=1;fontSize=12;fontColor=#330000;strokeColor=#330000;strokeWidth=1;" edge="1" parent="1" source="H5jQDt75XuZsCcyOqJ6_-4" target="dyrA6bt0p0aXRxlV8k7_-1">
          <mxGeometry relative="1" as="geometry" />
        </mxCell>
        <mxCell id="H5jQDt75XuZsCcyOqJ6_-6" value="父亲" style="edgeLabel;html=1;align=center;verticalAlign=middle;resizable=0;points=[];fontSize=12;fontColor=#330000;" vertex="1" connectable="0" parent="H5jQDt75XuZsCcyOqJ6_-5">
          <mxGeometry x="-0.5148" y="-6" relative="1" as="geometry">
            <mxPoint x="9" y="1" as="offset" />
          </mxGeometry>
        </mxCell>
        <mxCell id="H5jQDt75XuZsCcyOqJ6_-4" value="&lt;font color=&quot;#333333&quot;&gt;&lt;span style=&quot;background-color: rgb(255, 255, 255);&quot;&gt;雷泽神&lt;/span&gt;&lt;/font&gt;" style="rounded=1;whiteSpace=wrap;html=1;fontSize=12;" vertex="1" parent="1">
          <mxGeometry x="60" y="80" width="60" height="30" as="geometry" />
        </mxCell>
        <mxCell id="H5jQDt75XuZsCcyOqJ6_-8" style="edgeStyle=orthogonalEdgeStyle;curved=1;rounded=0;orthogonalLoop=1;jettySize=auto;html=1;fontSize=12;fontColor=#330000;strokeColor=#330000;strokeWidth=1;" edge="1" parent="1" source="H5jQDt75XuZsCcyOqJ6_-7" target="dyrA6bt0p0aXRxlV8k7_-1">
          <mxGeometry relative="1" as="geometry" />
        </mxCell>
        <mxCell id="H5jQDt75XuZsCcyOqJ6_-9" value="妻子" style="edgeLabel;html=1;align=center;verticalAlign=middle;resizable=0;points=[];fontSize=12;fontColor=#330000;" vertex="1" connectable="0" parent="H5jQDt75XuZsCcyOqJ6_-8">
          <mxGeometry x="-0.0377" relative="1" as="geometry">
            <mxPoint as="offset" />
          </mxGeometry>
        </mxCell>
        <mxCell id="H5jQDt75XuZsCcyOqJ6_-7" value="&lt;font color=&quot;#333333&quot;&gt;&lt;span style=&quot;background-color: rgb(255, 255, 255);&quot;&gt;女娲&lt;/span&gt;&lt;/font&gt;" style="rounded=1;whiteSpace=wrap;html=1;fontSize=12;" vertex="1" parent="1">
          <mxGeometry x="460" y="135" width="60" height="30" as="geometry" />
        </mxCell>
        <mxCell id="mHt5wT7MZOkaPMEDdesA-1" value="&lt;span style=&quot;color: rgb(51, 51, 51); font-family: &amp;quot;PingFang SC&amp;quot;, &amp;quot;Lantinghei SC&amp;quot;, &amp;quot;Microsoft YaHei&amp;quot;, arial, 宋体, sans-serif, tahoma; font-size: 12px; text-align: start; background-color: rgb(255, 255, 255);&quot;&gt;琴和瑟&lt;/span&gt;" style="rounded=0;whiteSpace=wrap;html=1;fontSize=11;" vertex="1" parent="1">
          <mxGeometry x="370" y="230" width="80" height="20" as="geometry" />
        </mxCell>
        <mxCell id="cg3DY2gx857722qw4oC--7" style="edgeStyle=orthogonalEdgeStyle;curved=1;rounded=0;orthogonalLoop=1;jettySize=auto;html=1;fontSize=12;fontColor=#330000;strokeColor=#330000;strokeWidth=1;" edge="1" parent="1" source="a8YQ2_qvu3MJN7NuMrGp-1" target="cg3DY2gx857722qw4oC--6">
          <mxGeometry relative="1" as="geometry" />
        </mxCell>
        <mxCell id="a8YQ2_qvu3MJN7NuMrGp-1" value="发明" style="ellipse;whiteSpace=wrap;html=1;aspect=fixed;fontSize=12;" vertex="1" parent="1">
          <mxGeometry x="269" y="265" width="50" height="50" as="geometry" />
        </mxCell>
        <mxCell id="cg3DY2gx857722qw4oC--3" value="&lt;span style=&quot;color: rgb(51, 51, 51); font-family: &amp;quot;PingFang SC&amp;quot;, &amp;quot;Lantinghei SC&amp;quot;, &amp;quot;Microsoft YaHei&amp;quot;, arial, 宋体, sans-serif, tahoma; font-size: 12px; text-align: start; background-color: rgb(255, 255, 255);&quot;&gt;婚姻制度&lt;/span&gt;&lt;span style=&quot;color: rgba(0, 0, 0, 0); font-family: monospace; font-size: 0px; text-align: start;&quot;&gt;%3CmxGraphModel%3E%3Croot%3E%3CmxCell%20id%3D%220%22%2F%3E%3CmxCell%20id%3D%221%22%20parent%3D%220%22%2F%3E%3CmxCell%20id%3D%222%22%20value%3D%22%26lt%3Bspan%20style%3D%26quot%3Bcolor%3A%20rgb(51%2C%2051%2C%2051)%3B%20font-family%3A%20%26amp%3Bquot%3BPingFang%20SC%26amp%3Bquot%3B%2C%20%26amp%3Bquot%3BLantinghei%20SC%26amp%3Bquot%3B%2C%20%26amp%3Bquot%3BMicrosoft%20YaHei%26amp%3Bquot%3B%2C%20arial%2C%20%E5%AE%8B%E4%BD%93%2C%20sans-serif%2C%20tahoma%3B%20font-size%3A%2012px%3B%20text-align%3A%20start%3B%20background-color%3A%20rgb(255%2C%20255%2C%20255)%3B%26quot%3B%26gt%3B%E7%90%B4%E5%92%8C%E7%91%9F%26lt%3B%2Fspan%26gt%3B%22%20style%3D%22rounded%3D0%3BwhiteSpace%3Dwrap%3Bhtml%3D1%3BfontSize%3D11%3B%22%20vertex%3D%221%22%20parent%3D%221%22%3E%3CmxGeometry%20x%3D%22490%22%20y%3D%22270%22%20width%3D%2280%22%20height%3D%2220%22%20as%3D%22geometry%22%2F%3E%3C%2FmxCell%3E%3C%2Froot%3E%3C%2FmxGraphModel%3E&lt;/span&gt;" style="rounded=0;whiteSpace=wrap;html=1;fontSize=11;" vertex="1" parent="1">
          <mxGeometry x="370" y="260" width="80" height="20" as="geometry" />
        </mxCell>
        <mxCell id="cg3DY2gx857722qw4oC--4" value="&lt;div style=&quot;text-align: start;&quot;&gt;&lt;font face=&quot;PingFang SC, Lantinghei SC, Microsoft YaHei, arial, 宋体, sans-serif, tahoma&quot; color=&quot;#333333&quot;&gt;&lt;span style=&quot;background-color: rgb(255, 255, 255);&quot;&gt;渔网&lt;/span&gt;&lt;/font&gt;&lt;/div&gt;" style="rounded=0;whiteSpace=wrap;html=1;fontSize=11;" vertex="1" parent="1">
          <mxGeometry x="370" y="290" width="80" height="20" as="geometry" />
        </mxCell>
        <mxCell id="cg3DY2gx857722qw4oC--9" style="edgeStyle=orthogonalEdgeStyle;curved=1;rounded=0;orthogonalLoop=1;jettySize=auto;html=1;fontSize=12;fontColor=#330000;strokeColor=#330000;strokeWidth=1;" edge="1" parent="1" source="cg3DY2gx857722qw4oC--5" target="cg3DY2gx857722qw4oC--8">
          <mxGeometry relative="1" as="geometry" />
        </mxCell>
        <mxCell id="cg3DY2gx857722qw4oC--12" value="周文王" style="edgeLabel;html=1;align=center;verticalAlign=middle;resizable=0;points=[];fontSize=12;fontColor=#330000;" vertex="1" connectable="0" parent="cg3DY2gx857722qw4oC--9">
          <mxGeometry x="-0.025" y="2" relative="1" as="geometry">
            <mxPoint x="-1" as="offset" />
          </mxGeometry>
        </mxCell>
        <mxCell id="cg3DY2gx857722qw4oC--5" value="&lt;div style=&quot;text-align: start;&quot;&gt;&lt;font face=&quot;PingFang SC, Lantinghei SC, Microsoft YaHei, arial, 宋体, sans-serif, tahoma&quot; color=&quot;#333333&quot;&gt;&lt;span style=&quot;background-color: rgb(255, 255, 255);&quot;&gt;八卦&lt;/span&gt;&lt;/font&gt;&lt;/div&gt;" style="rounded=0;whiteSpace=wrap;html=1;fontSize=11;" vertex="1" parent="1">
          <mxGeometry x="370" y="320" width="80" height="20" as="geometry" />
        </mxCell>
        <mxCell id="cg3DY2gx857722qw4oC--11" style="edgeStyle=orthogonalEdgeStyle;curved=1;rounded=0;orthogonalLoop=1;jettySize=auto;html=1;fontSize=12;fontColor=#330000;strokeColor=#330000;strokeWidth=1;" edge="1" parent="1" source="cg3DY2gx857722qw4oC--8" target="cg3DY2gx857722qw4oC--10">
          <mxGeometry relative="1" as="geometry" />
        </mxCell>
        <mxCell id="cg3DY2gx857722qw4oC--8" value="&lt;div style=&quot;text-align: start;&quot;&gt;&lt;font face=&quot;PingFang SC, Lantinghei SC, Microsoft YaHei, arial, 宋体, sans-serif, tahoma&quot; color=&quot;#333333&quot;&gt;&lt;span style=&quot;background-color: rgb(255, 255, 255);&quot;&gt;六十四卦&lt;/span&gt;&lt;/font&gt;&lt;/div&gt;" style="rounded=0;whiteSpace=wrap;html=1;fontSize=11;" vertex="1" parent="1">
          <mxGeometry x="550" y="320" width="80" height="20" as="geometry" />
        </mxCell>
        <mxCell id="cg3DY2gx857722qw4oC--10" value="&lt;div style=&quot;text-align: start;&quot;&gt;&lt;font face=&quot;PingFang SC, Lantinghei SC, Microsoft YaHei, arial, 宋体, sans-serif, tahoma&quot; color=&quot;#333333&quot;&gt;&lt;span style=&quot;background-color: rgb(255, 255, 255);&quot;&gt;易经&lt;/span&gt;&lt;/font&gt;&lt;/div&gt;" style="rounded=0;whiteSpace=wrap;html=1;fontSize=11;" vertex="1" parent="1">
          <mxGeometry x="660" y="320" width="80" height="20" as="geometry" />
        </mxCell>
        <mxCell id="cg3DY2gx857722qw4oC--14" style="edgeStyle=orthogonalEdgeStyle;curved=1;rounded=0;orthogonalLoop=1;jettySize=auto;html=1;fontSize=12;fontColor=#330000;strokeColor=#330000;strokeWidth=1;" edge="1" parent="1" source="cg3DY2gx857722qw4oC--13" target="dyrA6bt0p0aXRxlV8k7_-1">
          <mxGeometry relative="1" as="geometry" />
        </mxCell>
        <mxCell id="cg3DY2gx857722qw4oC--15" value="辅佐" style="edgeLabel;html=1;align=center;verticalAlign=middle;resizable=0;points=[];fontSize=12;fontColor=#330000;" vertex="1" connectable="0" parent="cg3DY2gx857722qw4oC--14">
          <mxGeometry x="-0.1642" y="9" relative="1" as="geometry">
            <mxPoint y="1" as="offset" />
          </mxGeometry>
        </mxCell>
        <mxCell id="cg3DY2gx857722qw4oC--18" style="edgeStyle=orthogonalEdgeStyle;curved=1;rounded=0;orthogonalLoop=1;jettySize=auto;html=1;fontSize=12;fontColor=#330000;strokeColor=#330000;strokeWidth=1;" edge="1" parent="1" source="cg3DY2gx857722qw4oC--13" target="cg3DY2gx857722qw4oC--16">
          <mxGeometry relative="1" as="geometry" />
        </mxCell>
        <mxCell id="cg3DY2gx857722qw4oC--19" style="edgeStyle=orthogonalEdgeStyle;curved=1;rounded=0;orthogonalLoop=1;jettySize=auto;html=1;entryX=0.5;entryY=0.5;entryDx=0;entryDy=0;entryPerimeter=0;fontSize=12;fontColor=#330000;strokeColor=#330000;strokeWidth=1;" edge="1" parent="1" source="cg3DY2gx857722qw4oC--13" target="cg3DY2gx857722qw4oC--17">
          <mxGeometry relative="1" as="geometry" />
        </mxCell>
        <mxCell id="cg3DY2gx857722qw4oC--13" value="&lt;font color=&quot;#333333&quot;&gt;&lt;span style=&quot;background-color: rgb(255, 255, 255);&quot;&gt;木神 句芒 gou mang&lt;/span&gt;&lt;/font&gt;" style="rounded=1;whiteSpace=wrap;html=1;fontSize=12;" vertex="1" parent="1">
          <mxGeometry x="60" y="190" width="60" height="30" as="geometry" />
        </mxCell>
        <mxCell id="cg3DY2gx857722qw4oC--16" value="&lt;div style=&quot;text-align: start;&quot;&gt;&lt;font face=&quot;PingFang SC, Lantinghei SC, Microsoft YaHei, arial, 宋体, sans-serif, tahoma&quot; color=&quot;#333333&quot;&gt;&lt;span style=&quot;background-color: rgb(255, 255, 255);&quot;&gt;东方&lt;/span&gt;&lt;/font&gt;&lt;/div&gt;" style="rounded=0;whiteSpace=wrap;html=1;fontSize=11;" vertex="1" parent="1">
          <mxGeometry x="5" y="310" width="80" height="20" as="geometry" />
        </mxCell>
        <mxCell id="cg3DY2gx857722qw4oC--17" value="&lt;div style=&quot;text-align: start;&quot;&gt;&lt;font face=&quot;PingFang SC, Lantinghei SC, Microsoft YaHei, arial, 宋体, sans-serif, tahoma&quot; color=&quot;#333333&quot;&gt;&lt;span style=&quot;background-color: rgb(255, 255, 255);&quot;&gt;春天&lt;/span&gt;&lt;/font&gt;&lt;/div&gt;" style="rounded=0;whiteSpace=wrap;html=1;fontSize=11;" vertex="1" parent="1">
          <mxGeometry x="95" y="310" width="80" height="20" as="geometry" />
        </mxCell>
        <mxCell id="cg3DY2gx857722qw4oC--20" value="掌管" style="text;html=1;align=center;verticalAlign=middle;resizable=0;points=[];autosize=1;strokeColor=none;fillColor=none;fontSize=12;fontColor=#330000;" vertex="1" parent="1">
          <mxGeometry x="100" y="230" width="40" height="20" as="geometry" />
        </mxCell>
      </root>
    </mxGraphModel>
  </diagram>
</mxfile>
